SplineFontDB: 3.0
FontName: Viravong
FullName: Viravong
FamilyName: Viravong
Weight: Regular
Copyright: Viravong, Lao Pali font based on Sanit Phokhaphan's LaneXang_Mon.\nCopyright (c) 2018, Theppitak Karoonboonyanan.\n\nLaneXang_Mon - font for the Laotian language of Laos.\nCopyright (c) 2013, Sanit Phokhaphan.\n
UComments: "2018-9-3: Created with FontForge (http://fontforge.org)"
Version: 001.001
ItalicAngle: 0
UnderlinePosition: -100
UnderlineWidth: 50
Ascent: 800
Descent: 200
InvalidEm: 0
LayerCount: 2
Layer: 0 0 "Back" 1
Layer: 1 0 "Fore" 0
XUID: [1021 642 1126272861 3024291]
FSType: 0
OS2Version: 0
OS2_WeightWidthSlopeOnly: 0
OS2_UseTypoMetrics: 1
CreationTime: 1535951478
ModificationTime: 1536933597
PfmFamily: 17
TTFWeight: 400
TTFWidth: 5
LineGap: 90
VLineGap: 0
OS2TypoAscent: 0
OS2TypoAOffset: 1
OS2TypoDescent: 0
OS2TypoDOffset: 1
OS2TypoLinegap: 90
OS2WinAscent: 0
OS2WinAOffset: 1
OS2WinDescent: 0
OS2WinDOffset: 1
HheadAscent: 0
HheadAOffset: 1
HheadDescent: 0
HheadDOffset: 1
OS2Vendor: 'PfEd'
MarkAttachClasses: 1
DEI: 91125

StartChar: uni0E81
Encoding: 3713 3713 0
Width: 707
VWidth: 1060
Flags: W
HStem: -8 56<98.4052 167.176> 0 21G<498 590.5> 121 46<99.126 158.836> 411 55<68.3178 159> 524 67<322.625 497.74> 543 48<67.7492 148.403>
VStem: 13 50<471.731 536.06> 49 45<52.4521 115.717> 159 78<165 414> 171 66<53.1719 117.47> 530 77<65 495.001>
LayerCount: 2
Fore
SplineSet
63 506 m 3x36a0
 63 480 84 466 112 466 c 3
 130 466 144 468 159 471 c 1
 159 509 145 543 116 543 c 3
 85 543 63 526 63 506 c 3x36a0
171 85 m 3xb160
 171 105 153 121 133 121 c 3
 114 121 94 104 94 85 c 3
 94 65 113 48 133 48 c 3
 154 48 171 65 171 85 c 3xb160
140 167 m 3
 147 167 153 167 158 165 c 1
 159 165 l 1
 159 414 l 1
 159 414 138 411 124 411 c 3
 59 411 13 438 13 501 c 3
 13 561 56 591 117 591 c 3xb6a0
 178 591 211 560 227 511 c 1
 282 562 326 591 404 591 c 3
 495 591 608 549 608 466 c 2
 607 67 l 1
 604 52 597 30 584 0 c 1
 498 0 l 1
 530 65 l 1
 531 442 l 2
 531 500 478 524 406 524 c 3x7aa0
 344 524 271 479 237 442 c 1
 237 88 l 2
 237 41 194 -8 140 -8 c 3
 91 -8 49 30 49 79 c 259
 49 127 91 167 140 167 c 3
EndSplineSet
EndChar

StartChar: uni0E82
Encoding: 3714 3714 1
Width: 628
VWidth: 1063
Flags: W
HStem: -8 71<78.8838 251.214> 0 21G<435 516.5> 64 69<317.605 454.595> 285 79<103.207 220.991> 434 45<160.336 220.696> 524 67<141.953 391.995>
VStem: 1 68<76.6849 123.297 356.593 469.83> 110 47<366.822 431.772> 224 58<367.947 431.238> 455 68<0.539446 57.9601> 466 63<322.385 461.263>
LayerCount: 2
Fore
SplineSet
196 479 m 3xbfa0
 244 479 282 437 282 388 c 3
 282 328 217 285 137 285 c 3
 61 285 3 340 3 414 c 3
 3 534 124 591 263 591 c 3
 414 591 529 544 529 399 c 3
 529 285 451 214 370 187 c 0
 337 176 258 165 186 154 c 16
 138 147 69 121 69 105 c 3
 69 73 125 63 154 63 c 3xbfa0
 263 63 306 133 394 133 c 3
 463 133 523 110 523 42 c 3
 523 19 522 13 511 0 c 1
 435 0 l 1
 442 10 455 28 455 39 c 3x7fc0
 455 52 439 64 384 64 c 3
 318 64 273 -8 168 -8 c 3
 87 -8 1 10 1 105 c 3
 1 171 92 205 181 216 c 0
 235 223 285 232 330 243 c 0
 394 259 466 316 466 389 c 3
 466 498 367 524 262 524 c 3
 175 524 67 494 67 412 c 3
 67 369 80 355 118 347 c 1
 112 358 110 372 110 388 c 3
 110 439 145 479 196 479 c 3xbfa0
157 399 m 3
 157 382 173 364 190 364 c 3
 207 364 224 381 224 399 c 3
 224 419 209 434 190 434 c 3
 172 434 157 418 157 399 c 3
EndSplineSet
EndChar

StartChar: uni0E84
Encoding: 3716 3716 2
Width: 676
VWidth: 1059
Flags: W
HStem: -8 61<187.79 256.252> 0 21G<459 546> 129 51<188.423 257.742> 227 54<133.385 235.197> 359 47<141.898 232.998> 523 68<163.363 398.349>
VStem: 3 68<96.7151 264.263 360.582 451.919> 127 57<65.0322 124.367> 239 46<287.018 353.091> 261 53<57.114 125.594> 493 69<26.4537 452.969>
LayerCount: 2
Fore
SplineSet
193 227 m 3x7fa0
 145 227 114 242 88 265 c 1
 77 246 71 222 71 191 c 3
 71 131 87 79 130 65 c 1
 130 65 127 83 127 87 c 3
 127 136 174 180 222 180 c 3
 272 180 314 139 314 87 c 3
 314 24 259 -8 194 -8 c 3xbf60
 64 -8 3 73 3 195 c 3
 3 247 18 276 43 311 c 1
 24 339 7 367 7 409 c 3
 7 531 156 591 292 591 c 3
 420 591 562 523 562 430 c 2
 562 97 l 2
 562 53 553 35 539 0 c 1
 459 0 l 1
 472 29 493 66 493 97 c 2
 493 406 l 2
 493 474 375 523 295 523 c 3
 189 523 74 489 74 396 c 3
 74 379 75 369 84 360 c 1
 109 391 138 406 191 406 c 3
 244 406 285 369 285 317 c 3
 285 265 244 227 193 227 c 3x7fa0
187 281 m 3
 212 281 239 291 239 317 c 3x3fa0
 239 342 220 359 193 359 c 3
 166 359 142 344 121 314 c 1
 142 292 164 281 187 281 c 3
223 53 m 3xbf60
 244 53 261 71 261 93 c 3
 261 114 244 129 223 129 c 3
 204 129 184 112 184 93 c 3
 184 70 198 53 223 53 c 3xbf60
EndSplineSet
EndChar

StartChar: uni0E87
Encoding: 3719 3719 3
Width: 526
VWidth: 1063
Flags: W
HStem: -167 62<21.077 225.436> 342 54<65.7887 133.029> 536 55<112.81 286.304>
VStem: -1 63<400.023 467.423> 137 50<400.382 468.978> 362 74<-8.56445 471.465>
LayerCount: 2
Fore
SplineSet
137 435 m 3
 137 455 120 473 100 473 c 259
 79 473 62 456 62 435 c 3
 62 413 79 396 100 396 c 259
 121 396 137 414 137 435 c 3
187 430 m 3
 187 380 148 342 98 342 c 259
 29 342 -1 379 -1 449 c 3
 -1 540 107 591 201 591 c 3
 318 591 436 537 436 422 c 2
 436 66 l 2
 436 -94 276 -167 132 -167 c 3
 101 -167 57 -164 0 -158 c 1
 1 -75 l 1
 40 -90 61 -105 117 -105 c 3
 207 -105 362 -44 362 46 c 2
 362 422 l 2
 362 475 289 536 194 536 c 3
 157 536 136 529 112 517 c 1
 153 511 187 474 187 430 c 3
EndSplineSet
EndChar

StartChar: uni0E88
Encoding: 3720 3720 4
Width: 673
VWidth: 1060
Flags: W
HStem: -8 21G<362 442> 232 51<242.817 311.839> 361 70<76.6074 109.1> 371 47<242.66 315.544> 521 70<133.36 427.449>
VStem: 3 73<435.546 483.043> 187 50<287.816 366.233> 321 73<78.7824 226 290.006 364.725> 482 74<298.337 476.15>
LayerCount: 2
Fore
SplineSet
474 82 m 0xef80
 468 36 462 -8 422 -8 c 2
 388 -8 l 2
 336 -8 321 125 321 192 c 2
 321 226 l 1
 310 235 l 1
 302 233 293 232 283 232 c 3
 235 232 187 269 187 324 c 3
 187 379 227 418 286 418 c 3
 360 418 394 372 394 226 c 3
 394 159 399 112 409 75 c 1
 434 274 482 264 482 418 c 3xdf80
 482 509 380 521 288 521 c 3
 220 521 76 502 76 457 c 3
 76 435 107 433 128 431 c 1
 107 361 l 1
 51 368 3 394 3 454 c 3
 3 559 182 591 290 591 c 3
 431 591 556 550 556 428 c 3
 556 309 487 183 474 82 c 0xef80
321 327 m 3
 321 352 306 371 278 371 c 3
 253 371 237 352 237 329 c 3
 237 301 254 283 276 283 c 3
 299 283 321 303 321 327 c 3
EndSplineSet
EndChar

StartChar: uni0E8A
Encoding: 3722 3722 5
Width: 678
VWidth: 1063
Flags: W
HStem: -8 64<130.043 296.539> 307 49<100.923 172.504> 424 45<125.395 171.382> 522 69<180.04 420.485>
VStem: 23 75<360.825 420.898> 51 78<64.0973 113.663> 175 60<359.542 419.558> 508 67<-181.142 49.2408> 509 75<290.54 444.63>
LayerCount: 2
Fore
SplineSet
175 387 m 3xfa
 175 410 157 424 133 424 c 3
 115 424 98 408 98 390 c 3
 98 371 118 356 137 356 c 3
 158 356 175 368 175 387 c 3xfa
527 -214 m 1
 510 -157 505 -118 505 -55 c 3
 505 -32 508 -7 508 21 c 3
 508 44 488 55 445 55 c 3
 383 55 317 -8 197 -8 c 3
 94 -8 51 39 51 94 c 3xf7
 51 133 106 156 210 163 c 0
 244 165 285 172 331 183 c 0
 422 205 509 269 509 371 c 3
 509 478 412 522 307 522 c 3
 230 522 170 506 125 468 c 1
 131 469 136 469 141 469 c 3
 187 469 235 436 235 392 c 3
 235 339 195 307 140 307 c 3
 78 307 23 351 23 415 c 3
 23 535 172 591 305 591 c 3
 474 591 584 519 584 364 c 3xfa80
 584 230 469 167 365 132 c 0
 327 119 285 110 235 105 c 0
 188 101 129 97 129 80 c 0
 129 63 184 56 196 56 c 3
 296 56 349 120 459 120 c 3
 518 120 575 94 575 33 c 3xf7
 575 -8 574 -42 574 -78 c 3
 574 -126 584 -171 606 -195 c 1
 527 -214 l 1
EndSplineSet
EndChar

StartChar: uni0E8D
Encoding: 3725 3725 6
Width: 667
VWidth: 1063
Flags: W
HStem: -8 70<171.045 392.655> 243 67<119.689 273.323> 403 52<163.35 229.545> 539 52<163.286 228.586> 560 20G<444 530.5>
VStem: -1 67<131.312 204.037 346.84 485.014> 234 49<459.337 534.816> 479 68<129.669 558.145>
LayerCount: 2
Fore
SplineSet
479 462 m 2xf7
 479 514 466 547 444 580 c 1
 526 580 l 1xef
 535 552 547 528 547 491 c 2
 547 154 l 2
 547 66 407 -8 281 -8 c 3
 151 -8 -1 62 -1 178 c 3
 -1 220 21 252 65 274 c 1
 31 296 -1 351 -1 392 c 3
 -1 505 64 591 186 591 c 3
 249 591 283 555 283 497 c 3
 283 444 240 403 194 403 c 3
 139 403 109 445 103 499 c 1
 75 487 66 436 66 398 c 3
 66 329 146 310 212 310 c 27
 236 310 273 314 273 314 c 1
 280 245 l 1
 280 245 253 243 235 243 c 3
 145 243 66 204 66 176 c 3
 66 111 196 62 285 62 c 3
 372 62 479 107 479 180 c 2
 479 462 l 2xf7
196 455 m 3
 219 455 234 474 234 496 c 3
 234 520 219 539 197 539 c 3xf7
 172 539 159 522 159 497 c 3
 159 471 176 455 196 455 c 3
EndSplineSet
EndChar

StartChar: uni0E94
Encoding: 3732 3732 7
Width: 685
VWidth: 1063
Flags: W
HStem: -8 59<136.328 208.605> 0 21G<377 512> 133 48<133.171 210.782> 523 68<178.809 413.247>
VStem: 4 70<117.847 436.938> 215 56<57.5446 127.898> 504 70<105.367 446.341>
LayerCount: 2
Fore
SplineSet
574 394 m 2xbe
 574 170 l 2
 574 113 537 43 487 0 c 1
 377 0 l 1x7e
 426 37 504 107 504 161 c 2
 504 370 l 2
 504 478 405 523 295 523 c 3
 191 523 74 472 74 370 c 2
 74 184 l 2
 74 157 79 135 87 117 c 1
 92 153 140 181 177 181 c 3
 221 181 271 141 271 88 c 3
 271 32 223 -8 169 -8 c 3
 68 -8 4 71 4 171 c 2
 4 410 l 2
 4 519 170 591 295 591 c 3
 442 591 574 528 574 394 c 2xbe
129 94 m 3
 129 77 145 51 171 51 c 3xbe
 199 51 215 73 215 94 c 3
 215 116 199 133 172 133 c 3
 148 133 129 119 129 94 c 3
EndSplineSet
EndChar

StartChar: uni0E95
Encoding: 3733 3733 8
Width: 772
VWidth: 1063
Flags: W
HStem: -8 54<173.722 248.856> 0 21G<435 589> 133 46<172.829 249.564> 523 68<126.932 226.127 437.018 537.416>
VStem: 14 79<119.257 484.679> 256 59<52.2041 125.957> 576 81<111.485 475.622>
LayerCount: 2
Fore
SplineSet
495 591 m 3xbe
 599 591 657 505 657 393 c 2
 657 199 l 2
 657 100 620 55 558 0 c 1
 435 0 l 1x7e
 504 48 576 108 576 175 c 2
 576 370 l 2
 576 441 552 523 494 523 c 3
 449 523 399 475 375 433 c 0
 368 419 353 405 335 405 c 3
 321 405 302 422 297 432 c 0
 270 470 214 523 170 523 c 3
 115 523 93 441 93 408 c 2
 93 193 l 2
 93 164 94 132 110 116 c 1
 121 156 166 179 208 179 c 3
 266 179 315 143 315 87 c 3
 315 29 266 -8 199 -8 c 3
 92 -8 14 66 14 170 c 2
 13 395 l 2
 12 506 69 591 173 591 c 3
 248 591 303 555 334 509 c 1
 367 550 421 591 495 591 c 3xbe
256 92 m 3
 256 109 240 133 211 133 c 3
 193 133 167 118 167 91 c 3
 167 68 183 46 210 46 c 3xbe
 237 46 256 65 256 92 c 3
EndSplineSet
EndChar

StartChar: uni0E96
Encoding: 3734 3734 9
Width: 645
VWidth: 1053
Flags: W
HStem: -8 48<143.412 213.496> 118 47<155.479 214.03> 411 60<-7.88381 83> 522 69<240.21 419.346> 544 47<-7.56258 73.9355>
VStem: -61 50<475.912 537.833> 83 72<162 415> 83 55<45.4521 113.819> 219 45<45.7712 112.826> 453 71<-152.05 491.65>
LayerCount: 2
Fore
SplineSet
83 475 m 1xedc0
 83 496 l 2
 83 509 69 544 42 544 c 3
 11 544 -11 533 -11 506 c 3
 -11 474 17 471 48 471 c 3
 53 471 83 475 83 475 c 1xedc0
219 79 m 259
 219 101 200 118 178 118 c 3
 156 118 138 101 138 79 c 259
 138 58 157 40 178 40 c 3
 199 40 219 58 219 79 c 259
177 -8 m 3
 124 -8 83 32 83 89 c 2xf5c0
 83 415 l 1
 72 413 61 411 48 411 c 0
 -4 411 -61 441 -61 496 c 3
 -61 558 -21 591 42 591 c 3xeec0
 105 591 134 561 151 511 c 1
 197 548 242 591 324 591 c 3
 415 591 524 554 524 469 c 2
 524 42 l 2
 524 -70 534 -177 586 -213 c 1
 502 -247 l 1
 471 -187 453 -103 453 -10 c 2
 453 444 l 2
 453 500 389 522 326 522 c 3
 242 522 206 474 155 441 c 1
 155 162 l 1xf6c0
 161 164 169 165 177 165 c 3
 226 165 264 127 264 78 c 3
 264 30 225 -8 177 -8 c 3
EndSplineSet
EndChar

StartChar: uni0E97
Encoding: 3735 3735 10
Width: 792
VWidth: 1063
Flags: W
HStem: -8 68<131.239 288.547> 0 21G<561 664> 390 62<79.2422 123.636> 525 66<442.938 568.485> 539 52<79.2932 161.624>
VStem: 4 77<108.121 224.281> 5 69<458.889 533.568> 169 72<459.399 530.978> 336 77<103.99 494.321> 602 77<31.1628 488.906>
LayerCount: 2
Fore
SplineSet
505 591 m 3xb5c0
 619 591 679 528 679 412 c 2
 679 106 l 2
 679 58 673 35 655 0 c 1
 561 0 l 1x75c0
 580 30 602 58 602 107 c 2
 602 409 l 2
 602 478 573 525 505 525 c 3
 439 525 413 482 413 412 c 2
 413 161 l 2
 413 57 325 -8 216 -8 c 3
 94 -8 4 46 4 172 c 3xb5c0
 4 265 82 317 124 395 c 1
 117 392 109 390 101 390 c 3
 55 390 5 435 5 489 c 3
 5 551 51 591 113 591 c 3xabc0
 181 591 241 553 241 491 c 3
 241 436 215 405 190 354 c 16
 168 310 81 215 81 172 c 3
 81 96 145 60 213 60 c 27
 275 60 336 100 336 160 c 2
 336 412 l 2
 336 531 383 591 505 591 c 3xb5c0
169 495 m 3
 169 517 148 539 121 539 c 3
 92 539 74 524 74 495 c 3x2bc0
 74 468 95 452 121 452 c 0
 149 452 169 471 169 495 c 3
EndSplineSet
EndChar

StartChar: uni0E99
Encoding: 3737 3737 11
Width: 770
VWidth: 1063
Flags: W
HStem: -8 69<1 75.2656 307.146 494.995> 404 51<68.0544 141.652> 545 46<67.2122 141.944> 560 20G<495 590.5>
VStem: 1 60<460.605 538.435> 148 76<133.981 412 461.481 538.719> 534 73<94.3275 548.746>
LayerCount: 2
Fore
SplineSet
607 118 m 2xde
 607 29 485 -8 398 -8 c 3
 261 -8 247 65 182 65 c 3
 143 65 123 -8 1 -8 c 1
 1 61 l 1
 81 61 148 129 148 202 c 2
 148 412 l 1
 136 406 121 404 104 404 c 3
 48 404 1 440 1 497 c 3
 1 559 36 591 106 591 c 3xee
 171 591 224 552 224 490 c 2
 224 203 l 2
 224 112 313 61 402 61 c 3
 465 61 534 83 534 143 c 2
 534 477 l 2
 534 519 510 551 495 580 c 1
 585 580 l 1
 596 549 607 523 607 477 c 2
 607 118 l 2xde
148 500 m 3
 148 527 131 545 107 545 c 3
 80 545 61 527 61 501 c 3
 61 476 78 455 103 455 c 3
 129 455 148 475 148 500 c 3
EndSplineSet
EndChar

StartChar: uni0E9A
Encoding: 3738 3738 12
Width: 695
VWidth: 1063
Flags: W
HStem: -8 70<153.073 400.042> 392 58<63.3213 110.217> 533 58<61.1243 139.186> 560 20G<460 549.5>
VStem: 1 71<126.37 238.245> 2 53<458.172 526.212> 144 69<455.308 527.834> 500 69<141.734 545.504>
LayerCount: 2
Fore
SplineSet
72 188 m 3xeb
 72 94 179 62 278 62 c 3
 385 62 500 108 500 205 c 2
 500 473 l 2
 500 517 475 549 460 580 c 1
 546 580 l 1
 553 553 569 532 569 501 c 2
 569 205 l 2
 569 65 430 -8 278 -8 c 3
 141 -8 1 44 1 188 c 3xdb
 1 267 65 313 111 386 c 1
 110 392 102 392 97 392 c 3
 42 392 2 430 2 486 c 3xd7
 2 547 37 591 97 591 c 3
 159 591 213 553 213 489 c 3
 213 450 204 417 187 388 c 0
 158 338 72 218 72 188 c 3xeb
144 492 m 3
 144 517 127 533 100 533 c 3
 75 533 55 513 55 492 c 3xe7
 55 475 74 450 100 450 c 3
 129 450 144 470 144 492 c 3
EndSplineSet
EndChar

StartChar: uni0E9B
Encoding: 3739 3739 13
Width: 697
VWidth: 1058
Flags: W
HStem: -8 72<187.297 426.99> 389 57<109.175 149.284> 532 59<108.247 175.793> 859 57<523.277 651.917> 886 57<464.249 550.524>
VStem: 41 69<125.719 237.812> 42 60<452.164 526.408> 181 68<451.994 526.569> 406 58<849.061 885.172> 529 68<143.881 781.016>
LayerCount: 2
Fore
SplineSet
181 489 m 3xe3c0
 181 513 164 532 142 532 c 3
 120 532 102 510 102 489 c 3
 102 472 118 446 142 446 c 3
 165 446 181 472 181 489 c 3xe3c0
680 889 m 1
 635 866 621 859 576 859 c 3xf5c0
 543 859 521 886 491 886 c 3
 476 886 464 878 464 864 c 0
 464 856 473 850 490 848 c 0
 537 843 597 803 597 762 c 2
 597 209 l 2
 597 73 463 -8 313 -8 c 3
 169 -8 41 48 41 187 c 3xedc0
 41 266 109 317 150 385 c 1
 149 388 141 389 136 389 c 3
 81 389 42 430 42 484 c 3xebc0
 42 544 78 591 137 591 c 3
 193 591 249 556 249 488 c 3
 249 449 238 405 223 381 c 0
 196 336 110 219 110 187 c 3
 110 96 212 64 313 64 c 3
 417 64 529 112 529 210 c 2
 529 758 l 2
 529 773 493 794 468 799 c 0
 437 805 406 834 406 874 c 3
 406 913 451 943 495 943 c 3xedc0
 536 943 543 916 579 916 c 3xf5c0
 601 916 624 922 642 935 c 1
 680 889 l 1
EndSplineSet
EndChar

StartChar: uni0E9C
Encoding: 3740 3740 14
Width: 754
VWidth: 1063
Flags: W
HStem: -8 68<136.053 262.685 420.409 539.878> 408 55<150.801 223.893 489.773 577.574> 538 53<489.03 571.06> 546 45<152.2 224.178> 560 20G<317 386>
VStem: 12 72<117.297 467.675> 229 52<466.005 541.498> 317 69<111.962 580> 427 58<469.376 533.468> 591 68<115.897 422> 648 60<523.177 593>
LayerCount: 2
Fore
SplineSet
536 463 m 3xe780
 565 463 579 473 579 496 c 3
 579 518 551 538 528 538 c 3
 505 538 485 523 485 502 c 3
 485 477 508 463 536 463 c 3xe780
147 503 m 3
 147 478 166 459 185 459 c 3
 209 459 229 480 229 502 c 3
 229 528 216 546 188 546 c 3xd780
 164 546 147 527 147 503 c 3
386 161 m 2
 386 108 424 60 471 60 c 3
 550 60 591 118 591 201 c 2xcfc0
 592 422 l 1
 568 412 546 408 527 408 c 3
 471 408 427 456 427 501 c 3
 427 560 474 591 534 591 c 3
 584 591 621 558 640 522 c 1
 647 547 648 579 648 611 c 1
 708 593 l 1xe7a0
 708 515 702 476 659 448 c 1
 659 205 l 2
 659 84 592 -8 472 -8 c 3
 427 -8 385 13 347 55 c 1
 320 23 284 -8 205 -8 c 3
 82 -8 12 89 12 192 c 2
 11 413 l 2
 11 516 78 591 180 591 c 3xd7c0
 246 591 281 550 281 498 c 3
 281 442 234 405 186 405 c 3
 148 405 109 427 97 469 c 1
 85 447 84 412 84 378 c 2
 84 201 l 2
 84 127 122 60 206 60 c 3
 251 60 317 114 317 161 c 2
 317 580 l 1
 386 580 l 1xcfc0
 386 161 l 2
EndSplineSet
EndChar

StartChar: uni0E9D
Encoding: 3741 3741 15
Width: 788
VWidth: 1063
Flags: W
HStem: -8 68<148.422 279.062 435.759 558.185> 405 54<167.316 236.281> 538 53<166.972 236.701> 560 20G<333 402> 859 57<601.277 729.892> 886 57<542.249 628.524>
VStem: 28 72<114.766 467.675> 242 55<464.579 532.625> 333 69<111.962 580> 484 58<849.061 885.127> 607 67<111.779 781.683>
LayerCount: 2
Fore
SplineSet
163 499 m 3xe3e0
 163 476 181 459 199 459 c 3
 222 459 242 477 242 498 c 3
 242 523 218 538 202 538 c 3
 178 538 163 522 163 499 c 3xe3e0
758 889 m 1
 713 866 698 859 654 859 c 3xcbe0
 621 859 599 886 569 886 c 3
 554 886 542 878 542 864 c 3
 542 856 551 850 568 848 c 0
 615 843 674 805 674 762 c 2
 674 205 l 2
 674 84 607 -8 487 -8 c 3
 442 -8 401 13 363 55 c 1
 336 24 291 -8 220 -8 c 3
 98 -8 29 83 28 192 c 2
 27 413 l 2
 27 516 94 591 195 591 c 3xe7e0
 261 591 297 550 297 498 c 3
 297 449 251 405 202 405 c 3
 158 405 123 427 112 469 c 1
 105 456 100 439 100 422 c 2
 100 206 l 2
 100 132 128 60 221 60 c 3
 267 60 333 114 333 161 c 2
 333 580 l 1
 402 580 l 1
 402 161 l 2
 402 108 439 60 486 60 c 3
 569 60 607 118 607 201 c 2
 607 758 l 2
 607 774 571 794 546 799 c 0
 515 805 484 834 484 874 c 3
 484 906 529 943 573 943 c 3xd7e0
 614 943 621 916 657 916 c 3xcbe0
 679 916 702 922 720 935 c 1
 758 889 l 1
EndSplineSet
EndChar

StartChar: uni0E9E
Encoding: 3742 3742 16
Width: 762
VWidth: 1063
Flags: W
HStem: -8 68<100.569 254.668 399.562 497.823> 396 61<66.8837 112.078> 541 50<65.8739 140.961> 560 20G<299 366 533 602>
VStem: 4 68<89.7778 222.518> 5 56<462.792 535.887> 145 69<463.02 536.03> 299 67<104.404 580> 533 69<100.031 580>
LayerCount: 2
Fore
SplineSet
449 60 m 259xdb80
 495 60 533 114 533 162 c 2
 533 580 l 1
 602 580 l 1
 602 162 l 2
 602 69 542 -8 450 -8 c 3
 399 -8 366 19 330 55 c 1
 290 16 262 -8 194 -8 c 3
 65 -8 4 39 4 170 c 3xdb80
 4 246 77 334 113 391 c 1
 110 394 104 396 99 396 c 3
 42 396 5 435 5 487 c 3
 5 546 40 591 100 591 c 3xe780
 161 591 214 553 214 491 c 3
 214 431 187 386 166 345 c 0
 148 310 72 202 72 170 c 3
 72 81 106 60 194 60 c 3
 248 60 299 109 299 162 c 2
 299 580 l 1
 366 580 l 1
 366 162 l 2
 366 112 401 60 449 60 c 259xdb80
145 499 m 3
 145 523 131 541 104 541 c 3
 75 541 61 524 61 499 c 3xe780
 61 475 79 457 104 457 c 3
 126 457 145 476 145 499 c 3
EndSplineSet
EndChar

StartChar: uni0E9F
Encoding: 3743 3743 17
Width: 783
VWidth: 1063
Flags: W
HStem: -8 68<147.092 305.335 451.448 573.49> 392 59<108.944 156.861> 534 57<107.879 181.318> 560 20G<348 417> 859 57<617.052 745.392> 886 57<558.249 643.561>
VStem: 42 60<459.284 526.947> 45 70<90.1199 225.019> 188 72<457.245 528.024> 348 69<103.054 580> 500 58<849.061 885.172> 622 68<113.547 779.817>
LayerCount: 2
Fore
SplineSet
145 534 m 3xe2f0
 125 534 102 516 102 493 c 3
 102 470 127 451 145 451 c 3
 169 451 188 470 188 493 c 3
 188 515 167 534 145 534 c 3xe2f0
774 889 m 1
 729 866 714 859 670 859 c 0xc9f0
 636 859 614 886 585 886 c 0
 570 886 558 878 558 864 c 3
 558 856 567 850 584 848 c 0
 624 844 690 805 690 762 c 2
 690 209 l 2
 690 86 623 -8 503 -8 c 3
 449 -8 418 20 378 55 c 1
 342 13 296 -8 240 -8 c 3
 116 -8 45 32 45 157 c 0xc5f0
 45 251 113 329 157 392 c 1
 153 392 149 392 145 392 c 0
 80 392 42 424 42 488 c 3
 42 552 80 591 143 591 c 3xe6f0
 200 591 260 558 260 492 c 3
 260 430 227 375 202 330 c 0
 173 284 115 213 115 150 c 3
 115 76 172 61 240 60 c 0
 296 60 348 105 348 161 c 2
 348 580 l 1
 417 580 l 1
 417 161 l 2
 417 111 454 60 502 60 c 3
 588 60 622 122 622 210 c 2
 622 758 l 2
 622 769 586 794 561 799 c 0
 530 805 500 834 500 874 c 3
 500 913 545 943 589 943 c 3xd5f0
 631 943 636 916 673 916 c 0xc9f0
 695 916 717 922 735 935 c 1
 774 889 l 1
EndSplineSet
EndChar

StartChar: uni0EA1
Encoding: 3745 3745 18
Width: 738
VWidth: 1058
Flags: W
HStem: -8 69<78.9637 176.69 297.414 499.302> 560 20G<157 219.5 512 606.5>
VStem: 1 71<68.8125 139.034> 99 75<284.533 518.648> 230 69<211.513 485.275> 552 72<107.502 547.041>
LayerCount: 2
Fore
SplineSet
552 475 m 2
 552 516 526 556 512 580 c 1
 600 580 l 1
 613 550 623 517 624 475 c 1
 624 163 l 2
 624 44 523 -8 403 -8 c 3
 331 -8 276 8 235 44 c 1
 210 9 174 -8 123 -8 c 3
 53 -8 1 36 1 107 c 3
 1 171 46 193 90 217 c 1
 107 197 113 182 120 151 c 1
 97 140 73 137 72 107 c 0
 72 79 91 61 123 61 c 3
 152 61 185 76 185 105 c 1
 128 238 99 343 99 423 c 3
 99 512 137 591 177 591 c 3
 262 591 299 460 299 345 c 3
 299 274 287 203 264 128 c 1
 276 81 323 61 403 61 c 3
 479 61 552 92 552 163 c 2
 552 475 l 2
189 520 m 1
 178 492 174 467 174 441 c 3
 174 375 188 307 215 209 c 1
 225 276 230 326 230 363 c 3
 230 411 222 479 189 520 c 1
EndSplineSet
EndChar

StartChar: uni0EA2
Encoding: 3746 3746 19
Width: 695
VWidth: 1063
Flags: W
HStem: -8 70<202.514 435.757> 243 64<168.786 319.25> 404 52<208.23 274.133> 535 56<208.056 272.884> 859 57<521.409 649.392> 886 57<462.249 548.41>
VStem: 39 68<126.785 203.606 343.491 484.265> 279 52<460.439 529.752> 404 58<849.061 885.172> 530 66<132.664 780.129>
LayerCount: 2
Fore
SplineSet
240 456 m 3xf3c0
 261 456 279 473 279 495 c 3
 279 511 263 535 241 535 c 3
 218 535 203 512 203 496 c 3
 203 478 219 456 240 456 c 3xf3c0
678 889 m 1
 633 866 618 859 574 859 c 3xfbc0
 541 859 519 886 489 886 c 3
 474 886 462 878 462 864 c 0
 462 856 471 850 488 848 c 0
 528 844 595 806 595 762 c 2
 596 154 l 2
 596 61 451 -8 329 -8 c 3
 194 -8 39 57 39 179 c 3
 39 218 61 249 106 272 c 1
 64 298 39 345 39 391 c 3
 39 513 115 591 229 591 c 3
 299 591 331 537 331 498 c 3
 331 454 287 404 238 404 c 3
 181 404 150 443 145 500 c 1
 115 486 107 433 107 396 c 3
 107 327 181 307 257 307 c 3
 262 307 319 312 319 312 c 1
 327 243 l 1
 267 243 107 226 107 175 c 3
 107 98 242 62 332 62 c 3
 412 62 530 110 530 179 c 2
 530 758 l 2
 530 770 491 794 466 799 c 0
 435 805 404 834 404 874 c 3
 404 913 449 943 493 943 c 3xf7c0
 535 943 540 916 577 916 c 3xfbc0
 599 916 621 922 639 935 c 1
 678 889 l 1
EndSplineSet
EndChar

StartChar: uni0EA3
Encoding: 3747 3747 20
Width: 688
VWidth: 1063
Flags: W
HStem: -8 61<189.748 426.578> 176 46<83.2041 155.588> 522 69<134.633 457.463>
VStem: 17 70<435.379 485.865> 22 56<104.161 169.797> 161 52<102.157 170.819> 500 76<105.83 213.891>
LayerCount: 2
Fore
SplineSet
119 98 m 3xee
 143 98 161 112 161 136 c 3
 161 158 142 176 120 176 c 3
 100 176 78 157 78 137 c 3
 78 115 97 98 119 98 c 3xee
500 156 m 3
 500 194 479 224 437 245 c 0
 317 305 148 320 64 378 c 0
 33 398 17 423 17 456 c 3
 17 566 172 591 290 591 c 3
 464 591 544 546 571 478 c 1
 510 436 l 1
 507 437 l 1
 496 502 441 522 285 522 c 3
 213 522 87 507 87 454 c 3xf6
 87 450 100 440 126 425 c 0
 186 391 426 340 503 287 c 0
 551 254 576 212 576 159 c 3
 576 29 420 -8 293 -8 c 3
 164 -8 22 24 22 129 c 3
 22 181 66 222 118 222 c 3
 170 222 213 180 213 127 c 3
 213 103 204 82 188 65 c 1
 212 59 256 53 293 53 c 3
 383 53 500 78 500 156 c 3
EndSplineSet
EndChar

StartChar: uni0EA5
Encoding: 3749 3749 21
Width: 692
VWidth: 1058
Flags: W
HStem: -8 72<436.291 486.442> -8 58<131.527 200.662> 134 49<126.722 202.063> 254 65<109.537 269.283> 520 71<140.155 408.127>
VStem: -1 77<144.229 223.591> 15 90<434.583 491.457> 208 62<57.1178 127.354> 519 72<110.488 406.224>
LayerCount: 2
Fore
SplineSet
15 462 m 3xbb80
 15 556 184 591 296 591 c 3
 487 591 591 483 591 292 c 3
 591 151 580 -8 460 -8 c 3xbb80
 426 -8 399 8 379 40 c 0
 353 78 325 182 286 221 c 0
 270 236 223 254 194 254 c 3
 128 254 76 231 76 164 c 3
 76 156 77 150 78 143 c 1
 101 166 127 183 170 183 c 3
 225 183 270 141 270 86 c 3
 270 33 225 -8 171 -8 c 3
 66 -8 -1 52 -1 160 c 3x7d80
 -1 270 95 319 199 319 c 3
 251 319 302 295 334 274 c 0
 370 250 412 137 438 81 c 0
 443 73 446 64 458 64 c 3
 511 64 519 220 519 292 c 3
 519 444 442 520 296 520 c 3
 233 520 105 509 105 465 c 3
 105 444 114 441 129 433 c 1
 125 414 112 389 104 372 c 1
 64 391 15 417 15 462 c 3xbb80
165 50 m 3x7980
 186 50 208 71 208 92 c 3
 208 114 188 134 165 134 c 3
 138 134 123 119 123 92 c 3
 123 71 144 50 165 50 c 3x7980
EndSplineSet
EndChar

StartChar: uni0EA7
Encoding: 3751 3751 22
Width: 650
VWidth: 1063
Flags: W
HStem: -8 69<149.189 387.858> 205 45<77.7935 151.417> 519 72<140.371 383.948>
VStem: 2 69<120.335 198.825> 13 71<423 470.667> 158 58<119.857 199.034> 478 74<138.197 440.32>
LayerCount: 2
Fore
SplineSet
216 157 m 3xf6
 216 109 189 85 148 73 c 1
 194 64 217 61 279 61 c 3
 373 61 478 107 478 206 c 2
 478 367 l 2
 478 476 377 519 263 519 c 3
 176 519 94 501 84 423 c 1
 13 423 l 1xee
 13 547 144 591 264 591 c 3
 423 591 552 526 552 367 c 2
 552 206 l 2
 552 60 423 -8 279 -8 c 3
 155 -8 2 23 2 142 c 3
 2 208 49 250 117 250 c 3
 171 250 216 211 216 157 c 3xf6
115 114 m 3
 141 114 158 134 158 160 c 3
 158 185 140 205 115 205 c 3
 90 205 71 185 71 160 c 3xf6
 71 134 89 114 115 114 c 3
EndSplineSet
EndChar

StartChar: uni0EAA
Encoding: 3754 3754 23
Width: 694
VWidth: 1063
Flags: W
HStem: -8 69<435.967 489.509> -8 53<129.369 202.846> 129 48<127.683 204.572> 250 64<107.415 271.335> 359 68<116.131 372.477> 522 69<125.643 421.925>
VStem: -1 77<140.78 219.379> 15 90<441.856 500.56> 211 59<53.3327 122.458> 519 72<98.7916 427.501>
LayerCount: 2
Fore
SplineSet
537 499 m 1xbdc0
 578 453 591 391 591 292 c 3
 591 203 587 132 569 78 c 0
 550 25 523 -8 460 -8 c 3xbdc0
 426 -8 399 8 379 39 c 0
 363 62 346 102 329 150 c 0
 310 206 268 250 194 250 c 3
 131 250 76 228 76 162 c 3
 76 152 77 145 78 139 c 1
 101 162 134 177 170 177 c 3
 225 177 270 137 270 83 c 3
 270 33 224 -8 171 -8 c 3
 68 -8 -1 50 -1 157 c 3x7ec0
 -1 266 97 314 199 314 c 3
 282 314 349 273 377 213 c 0
 397 170 418 122 438 78 c 0
 442 70 447 61 458 61 c 3
 484 61 499 96 504 121 c 0
 514 166 519 222 519 292 c 3
 519 367 517 401 489 440 c 1
 431 386 348 359 242 359 c 3
 143 359 15 385 15 467 c 3
 15 554 141 591 242 591 c 3
 354 591 435 577 482 549 c 1
 493 570 505 591 517 611 c 1
 538 601 560 592 583 583 c 1
 572 555 556 527 537 499 c 1xbdc0
242 522 m 3
 186 522 105 512 105 469 c 3
 105 437 159 427 243 427 c 3
 333 427 389 446 439 492 c 1
 400 516 313 522 242 522 c 3
166 45 m 3x7cc0
 187 45 211 66 211 87 c 259
 211 110 190 129 166 129 c 3
 140 129 123 113 123 87 c 3
 123 65 144 45 166 45 c 3x7cc0
EndSplineSet
EndChar

StartChar: uni0EAB
Encoding: 3755 3755 24
Width: 754
VWidth: 1063
Flags: W
HStem: -8 68<121.725 284.826> 0 21G<532 630> 396 60<74.0746 123.778> 447 52<284.729 342.71> 530 61<457.903 559.214> 537 54<75.7416 144.635> 549 42<284.206 347.715>
VStem: -2 78<103.793 224.849 458.211 534.295> 150 86<460.246 531.688> 238 45<501.295 545.498> 342 77<110.468 449.645> 573 78<33.5703 517.865>
LayerCount: 2
Fore
SplineSet
283 525 m 3x13f0
 283 508 300 499 318 499 c 3
 331 499 341 501 353 502 c 1
 353 527 342 549 322 549 c 3
 300 549 283 536 283 525 c 3x13f0
70 496 m 3
 70 472 88 456 110 456 c 3
 134 456 150 475 150 496 c 3
 150 516 134 537 110 537 c 3x25f0
 84 537 70 515 70 496 c 3
573 457 m 2
 573 505 552 530 517 530 c 3x49f0
 488 530 455 511 419 476 c 1
 419 150 l 2
 419 70 316 -8 211 -8 c 3
 89 -8 -2 46 -2 172 c 3
 -2 249 72 321 105 370 c 2
 124 398 l 1
 124 398 109 396 104 396 c 3
 56 396 -1 430 -1 489 c 3
 -1 551 45 591 107 591 c 3xa5f0
 175 591 236 554 236 491 c 3
 236 437 201 378 185 354 c 0
 154 307 76 210 76 172 c 3
 76 92 136 60 208 60 c 3
 278 60 342 110 342 160 c 2
 343 447 l 1
 286 454 238 459 238 520 c 3
 238 569 276 591 325 591 c 3x93f0
 372 591 397 574 412 545 c 1
 433 576 473 591 531 591 c 3
 609 591 651 555 651 474 c 2
 651 107 l 2
 651 70 638 34 622 0 c 1
 532 0 l 1x49f0
 551 30 573 68 573 109 c 2
 573 457 l 2
EndSplineSet
EndChar

StartChar: uni0EAD
Encoding: 3757 3757 25
Width: 695
VWidth: 1058
Flags: W
HStem: -8 70<167.181 408.769> 203 52<68.5221 135.892> 282 73<111.987 375.122> 520 71<143.358 416.185>
VStem: 2 71<387.12 471.084> 2 62<126.642 199.084> 141 59<126.484 198.441> 510 70<145.576 377.155>
LayerCount: 2
Fore
SplineSet
200 160 m 3xf7
 200 124 184 100 162 85 c 1
 204 71 251 63 306 62 c 0
 407 62 510 121 510 209 c 2
 510 369 l 1
 509 378 l 1
 441 316 358 282 260 282 c 3
 135 282 2 320 2 431 c 3xfb
 2 557 150 591 289 591 c 3
 450 591 580 524 580 370 c 2
 580 209 l 2
 580 69 458 -8 306 -8 c 3
 169 -8 2 39 2 159 c 3
 2 218 47 255 104 255 c 3
 153 255 200 210 200 160 c 3xf7
484 457 m 1
 450 502 351 520 287 520 c 3
 224 520 73 503 73 431 c 3
 73 361 168 355 263 355 c 3
 359 355 438 397 484 457 c 1
141 162 m 259
 141 184 124 203 102 203 c 259
 80 203 64 184 64 162 c 259xf7
 64 141 81 122 102 122 c 259
 124 122 141 140 141 162 c 259
EndSplineSet
EndChar

StartChar: uni0EAE
Encoding: 3758 3758 26
Width: 673
VWidth: 1063
Flags: W
HStem: -8 63<179.311 420.88> 180 48<68.7624 143.275> 451 69<306.762 442.604> 528 63<80.1933 209.387>
VStem: -2 79<457.35 523.972> 4 58<105.745 173.243> 148 54<103.088 175.116> 500 80<112.233 224.614>
LayerCount: 2
Fore
SplineSet
105 99 m 3xf7
 131 99 148 113 148 139 c 3
 148 163 130 180 105 180 c 3
 84 180 62 160 62 139 c 3
 62 117 83 99 105 99 c 3xf7
103 228 m 3
 156 228 202 184 202 131 c 3
 202 106 194 84 177 66 c 1
 209 58 248 55 287 55 c 3
 381 55 500 83 500 164 c 3
 500 203 480 233 440 257 c 0
 360 305 206 334 62 394 c 0xf7
 26 409 -2 426 -2 477 c 0
 -2 552 58 591 128 591 c 3
 234 591 327 520 374 520 c 3
 445 520 482 576 510 626 c 1
 591 606 l 1
 531 517 476 451 373 451 c 3
 290 451 204 528 129 528 c 3
 100 528 77 522 77 492 c 3xfb
 77 474 80 464 90 459 c 0
 200 408 351 381 462 322 c 0
 527 288 580 240 580 164 c 3
 580 41 422 -8 287 -8 c 3
 153 -8 4 21 4 131 c 3
 4 184 49 228 103 228 c 3
EndSplineSet
EndChar

StartChar: uni0EB0
Encoding: 3760 3760 27
Width: 523
VWidth: 1063
Flags: W
HStem: 33 60<128.09 289.751> 211 44<45.8457 105.853> 270 61<129.037 290.529> 449 43<46.2632 108.883>
VStem: -1 43<143.354 209.319 380.811 446.629> 108 42<142.312 206.61 378.288 445.477> 358 54<158.681 245 395.277 483>
LayerCount: 2
Fore
SplineSet
414 483 m 1
 414 351 327 270 196 270 c 3
 100 270 1 312 1 407 c 3
 1 452 30 492 72 492 c 3
 117 492 152 458 152 414 c 3
 152 384 143 360 128 345 c 1
 144 336 167 331 193 331 c 3
 296 331 359 379 359 483 c 1
 414 483 l 1
150 178 m 3
 150 150 142 122 126 108 c 1
 139 95 168 93 192 93 c 3
 296 93 358 143 358 245 c 1
 412 246 l 1
 412 106 317 33 193 33 c 3
 94 33 -1 75 -1 170 c 3
 -1 214 27 255 70 255 c 3
 113 255 150 220 150 178 c 3
79 377 m 3
 98 377 113 395 113 414 c 3
 113 433 92 449 73 449 c 3
 57 449 43 431 43 413 c 3
 43 394 55 377 79 377 c 3
76 140 m 259
 96 140 108 159 108 179 c 3
 108 197 89 211 70 211 c 3
 54 211 42 188 42 171 c 3
 42 153 57 140 76 140 c 259
EndSplineSet
EndChar

StartChar: uni0EB1
Encoding: 3761 3761 28
Width: 0
VWidth: 1063
Flags: W
HStem: 654 62<-418.228 -224.224> 838 46<-518.339 -450.944>
VStem: -575 52<764.842 834.92> -448 57<763.5 833.562> -139 65<794.283 874>
LayerCount: 2
Fore
SplineSet
-342 716 m 3
 -226 716 -139 761 -139 874 c 1
 -74 874 l 1
 -74 714 -210 654 -338 654 c 3
 -438 654 -575 697 -575 785 c 3
 -575 840 -542 884 -487 884 c 259
 -438 884 -391 848 -391 803 c 3
 -391 770 -401 745 -420 732 c 1
 -404 721 -371 716 -342 716 c 3
-448 803 m 3
 -448 825 -467 838 -489 838 c 3
 -510 838 -523 819 -523 795 c 3
 -523 777 -506 761 -485 761 c 3
 -460 761 -448 777 -448 803 c 3
EndSplineSet
EndChar

StartChar: uni0EB2
Encoding: 3762 3762 29
Width: 463
VWidth: 1063
Flags: W
HStem: 0 21G<282 361.733> 313 51<70.8024 135.704> 451 43<84.6492 134.656> 525 66<102.19 252.748>
VStem: 0 64<368.92 470.088> 142 51<368.75 445.636> 308 75<13.9343 471.973>
LayerCount: 2
Fore
SplineSet
193 405 m 3
 193 354 158 313 109 313 c 3
 36 313 0 358 0 431 c 3
 0 522 90 591 184 591 c 3
 303 591 384 507 384 405 c 2
 383 75 l 2
 383 52 354 0 354 0 c 1
 282 0 l 1
 289 12 308 53 308 76 c 2
 308 405 l 2
 308 471 253 525 186 525 c 3
 155 525 120 515 84 494 c 1
 152 494 193 466 193 405 c 3
103 364 m 259
 125 364 142 384 142 408 c 3
 142 431 125 451 103 451 c 3
 82 451 64 429 64 408 c 3
 64 385 82 364 103 364 c 259
EndSplineSet
EndChar

StartChar: uni0EB4
Encoding: 3764 3764 31
Width: 0
VWidth: 1063
Flags: W
HStem: 625 63<-562.327 -471.378 -350.351 -259.257> 837 65<-538.886 -281.715>
VStem: -669 67<720.086 798.209> -220 67<721.995 795.832>
LayerCount: 2
Fore
SplineSet
-470 657 m 3
 -470 637 -483 625 -503 625 c 3
 -550 625 -669 682 -669 757 c 3
 -669 850 -517 902 -411 902 c 3
 -305 902 -153 851 -153 757 c 3
 -153 681 -270 625 -320 625 c 3
 -338 625 -352 639 -352 657 c 3
 -352 674 -340 683 -326 688 c 0
 -284 698 -220 716 -220 757 c 3
 -220 819 -337 837 -411 837 c 3
 -487 837 -602 822 -602 757 c 3
 -602 716 -542 699 -497 688 c 0
 -484 686 -470 675 -470 657 c 3
EndSplineSet
EndChar

StartChar: uni0EB5
Encoding: 3765 3765 32
Width: 0
VWidth: 1063
Flags: W
HStem: 625 63<-562.444 -471.378 -350.351 -286.469> 632 93<-286 -108> 837 65<-538.886 -281.715>
VStem: -669 67<721.18 798.209> -220 67<720.842 795.832>
LayerCount: 2
Fore
SplineSet
-470 657 m 3xb8
 -470 637 -483 625 -503 625 c 3xb8
 -544 625 -669 679 -669 757 c 3
 -669 850 -517 902 -411 902 c 3
 -305 902 -153 851 -153 757 c 3
 -153 737 -160 718 -173 700 c 1
 -154 706 -122 725 -108 725 c 3
 -94 725 -83 708 -83 694 c 3
 -83 681 -88 673 -98 668 c 0
 -142 645 -213 632 -286 632 c 1x78
 -296 628 -306 625 -320 625 c 3
 -338 625 -352 639 -352 657 c 3
 -352 674 -340 683 -326 688 c 0
 -284 698 -220 716 -220 757 c 3
 -220 819 -337 837 -411 837 c 3
 -487 837 -602 822 -602 757 c 3
 -602 716 -542 699 -497 688 c 0
 -484 686 -470 675 -470 657 c 3xb8
EndSplineSet
EndChar

StartChar: uni0EB6
Encoding: 3766 3766 33
Width: 0
VWidth: 1063
Flags: W
HStem: 625 63<-562.327 -471.378 -350.351 -259.257> 696 92<-442.97 -378.223> 837 65<-538.886 -281.715>
VStem: -669 67<720.086 798.209> -449 77<700.776 783.054> -220 67<721.995 795.832>
LayerCount: 2
Fore
SplineSet
-470 657 m 3
 -470 637 -483 625 -503 625 c 3
 -550 625 -669 682 -669 757 c 3
 -669 850 -517 902 -411 902 c 3
 -305 902 -153 851 -153 757 c 3
 -153 681 -270 625 -320 625 c 3
 -338 625 -352 639 -352 657 c 3
 -352 674 -340 683 -326 688 c 0
 -284 698 -220 716 -220 757 c 3
 -220 819 -337 837 -411 837 c 3
 -487 837 -602 822 -602 757 c 3
 -602 716 -542 699 -497 688 c 0
 -484 686 -470 675 -470 657 c 3
-410 788 m 3
 -388 788 -372 765 -372 742 c 259
 -372 719 -388 696 -410 696 c 259
 -434 696 -449 718 -449 742 c 3
 -449 766 -432 788 -410 788 c 3
EndSplineSet
EndChar

StartChar: uni0EB7
Encoding: 3767 3767 34
Width: 0
VWidth: 1063
Flags: W
HStem: 625 63<-562.444 -471.378 -350.351 -286.469> 632 93<-286 -108> 696 92<-442.97 -378.223> 837 65<-538.886 -281.715>
VStem: -669 67<721.18 798.209> -449 77<700.776 783.054> -220 67<720.842 795.832>
LayerCount: 2
Fore
SplineSet
-470 657 m 3x9e
 -470 637 -483 625 -503 625 c 3x9e
 -544 625 -669 679 -669 757 c 3
 -669 850 -517 902 -411 902 c 3
 -305 902 -153 851 -153 757 c 3
 -153 737 -160 718 -173 700 c 1
 -154 706 -122 725 -108 725 c 3
 -94 725 -83 708 -83 694 c 3
 -83 681 -88 673 -98 668 c 0
 -142 645 -213 632 -286 632 c 1x5e
 -296 628 -306 625 -320 625 c 3
 -338 625 -352 639 -352 657 c 3
 -352 674 -340 683 -326 688 c 0
 -284 698 -220 716 -220 757 c 3
 -220 819 -337 837 -411 837 c 3
 -487 837 -602 822 -602 757 c 3
 -602 716 -542 699 -497 688 c 0
 -484 686 -470 675 -470 657 c 3x9e
-410 788 m 3x3e
 -388 788 -372 765 -372 742 c 259
 -372 719 -388 696 -410 696 c 259
 -434 696 -449 718 -449 742 c 3
 -449 766 -432 788 -410 788 c 3x3e
EndSplineSet
EndChar

StartChar: uni0EB8
Encoding: 3768 3768 35
Width: 0
VWidth: 1063
Flags: W
HStem: -181 38<-342.497 -297.376> -98 28<-342.591 -293.166>
VStem: -385 41<-141.976 -99.3265> -297 65<-302.288 -259 -142.993 -98.2715>
LayerCount: 2
Fore
SplineSet
-291 -120 m 3
 -291 -133 -305 -143 -319 -143 c 3
 -330 -143 -344 -131 -344 -119 c 259
 -344 -105 -330 -98 -316 -98 c 3
 -301 -98 -291 -107 -291 -120 c 3
-385 -126 m 3
 -385 -158 -352 -181 -319 -181 c 3
 -311 -181 -304 -180 -297 -178 c 1
 -297 -259 l 2
 -297 -268 -325 -313 -325 -313 c 1
 -252 -313 l 1
 -252 -313 -232 -275 -232 -259 c 2
 -232 -148 l 2
 -232 -91 -255 -70 -318 -70 c 3
 -355 -70 -385 -88 -385 -126 c 3
EndSplineSet
EndChar

StartChar: uni0EB9
Encoding: 3769 3769 36
Width: 0
VWidth: 1063
Flags: W
HStem: -305 54<-328.674 -284.707> -171 34<-430.434 -390.282> -96 26<-430.798 -386.762>
VStem: -471 39<-136.779 -96.5729> -390 60<-249.299 -223 -172 -170.985 -136.993 -96.1887> -283 59<-249.572 -219>
LayerCount: 2
Fore
SplineSet
-385 -116 m 259
 -385 -128 -399 -137 -410 -137 c 3
 -421 -137 -432 -126 -432 -114 c 259
 -432 -104 -421 -96 -408 -96 c 3
 -392 -96 -385 -107 -385 -116 c 259
-330 -141 m 2
 -330 -87 -350 -70 -410 -70 c 3
 -443 -70 -471 -88 -471 -121 c 3
 -471 -151 -439 -171 -410 -171 c 3
 -403 -171 -396 -171 -390 -172 c 1
 -390 -224 l 2
 -390 -272 -353 -305 -301 -305 c 3
 -251 -305 -224 -269 -224 -219 c 2
 -223 -75 l 1
 -283 -75 l 1
 -283 -219 l 2
 -283 -233 -289 -251 -301 -251 c 3
 -316 -251 -330 -235 -330 -223 c 2
 -330 -141 l 2
EndSplineSet
EndChar

StartChar: uni0EBA
Encoding: 3770 3770 37
Width: 0
VWidth: 1063
Flags: W
HStem: -221 145<-178.5 -75.625>
VStem: -200 145<-199.875 -97>
LayerCount: 2
Fore
SplineSet
-127 -76 m 259
 -86 -76 -55 -107 -55 -148 c 3
 -55 -189 -86 -221 -127 -221 c 259
 -168 -221 -200 -189 -200 -148 c 3
 -200 -108 -167 -76 -127 -76 c 259
EndSplineSet
EndChar

StartChar: uni0EBB
Encoding: 3771 3771 38
Width: 0
VWidth: 1063
Flags: W
HStem: 618 51<-547.884 -477.836> 788 63<-446.596 -244.471>
VStem: -612 59<672.659 745.671> -475 56<672.711 747.787> -154 69<627 708.605>
LayerCount: 2
Fore
SplineSet
-520 618 m 3
 -576 618 -612 661 -612 717 c 3
 -612 809 -466 851 -363 851 c 3
 -211 851 -85 778 -85 627 c 1
 -154 627 l 1
 -154 743 -244 788 -368 788 c 27
 -405 788 -424 784 -449 774 c 1
 -433 758 -419 729 -419 699 c 3
 -419 659 -468 618 -520 618 c 3
-475 707 m 3
 -475 732 -487 750 -509 750 c 3
 -533 750 -553 739 -553 713 c 3
 -553 690 -541 669 -517 669 c 3
 -493 669 -475 680 -475 707 c 3
EndSplineSet
EndChar

StartChar: uni0EBC
Encoding: 3772 3772 39
Width: 0
VWidth: 1063
Flags: W
HStem: -259 52<-560.982 -492.147> -246 65<-354.209 -274.806> -125 65<-562.604 -490.961>
VStem: -623 56<-201.12 -130.571> -486 52<-201.935 -167> -232 51<-117.681 -82.3725>
LayerCount: 2
Fore
SplineSet
-623 -159 m 0xbc
 -623 -102 -583 -60 -525 -60 c 3
 -472 -60 -429 -84 -384 -131 c 0
 -353 -164 -328 -181 -309 -181 c 3
 -263 -181 -245 -88 -232 -47 c 1
 -181 -88 l 1
 -202 -156 -228 -246 -304 -246 c 3x7c
 -344 -246 -394 -213 -434 -167 c 1
 -434 -211 -478 -259 -525 -259 c 3
 -585 -259 -623 -221 -623 -159 c 0xbc
-526 -207 m 256xbc
 -504 -207 -486 -188 -486 -164 c 0
 -486 -143 -504 -125 -526 -125 c 0
 -547 -125 -567 -142 -567 -164 c 0
 -567 -186 -548 -207 -526 -207 c 256xbc
EndSplineSet
EndChar

StartChar: uni0EBD
Encoding: 3773 3773 40
Width: 612
VWidth: 1063
Flags: W
HStem: -195 64<114.303 377.133> -30 52<102.367 206> 55 43<156.102 217.347> 142 53<121.005 217.615> 448 69<264.914 383.771> 525 66<67.8156 180.478>
VStem: -3 69<456.392 520.887> 6 76<-101.945 -40.1763 43.4137 108.892> 218 43<98.6975 140.398> 467 69<-47.4218 179.494>
LayerCount: 2
Fore
SplineSet
218 120 m 3xfcc0
 218 135 204 142 187 142 c 3
 170 142 156 135 156 121 c 3
 156 102 173 98 192 98 c 3
 205 98 218 107 218 120 c 3xfcc0
112 525 m 3
 85 525 66 517 66 491 c 3xfec0
 66 474 68 464 77 459 c 0
 190 400 338 374 436 298 c 0
 483 262 536 179 536 90 c 3
 536 -116 443 -195 249 -195 c 3
 118 -195 6 -181 6 -66 c 3
 6 -38 18 -21 53 0 c 1
 31 4 6 35 6 76 c 3
 6 141 86 195 158 195 c 3
 214 195 261 166 261 119 c 3
 261 81 227 55 190 55 c 3
 145 55 117 73 110 113 c 1
 96 107 82 90 82 83 c 3
 82 43 123 22 206 22 c 1
 214 15 l 1
 214 -8 l 2
 214 -23 183 -30 121 -30 c 1
 95 -43 82 -57 82 -72 c 3xfdc0
 82 -107 145 -131 250 -131 c 3
 406 -131 467 -75 467 65 c 3
 467 154 437 221 382 258 c 0
 313 305 143 347 53 394 c 0
 28 407 -3 428 -3 476 c 3xfec0
 -3 544 50 591 118 591 c 3
 192 591 288 517 318 517 c 3
 387 517 419 572 443 623 c 1
 513 603 l 1
 461 514 428 448 318 448 c 3
 258 448 172 525 112 525 c 3
EndSplineSet
EndChar

StartChar: uni0EC0
Encoding: 3776 3776 41
Width: 303
VWidth: 1063
Flags: W
HStem: -8 49<105.576 182.537> 133 51<104.795 183.492> 530 61<104.421 225.762>
VStem: 19 71<176 516.806> 191 52<49.1708 125.517>
LayerCount: 2
Fore
SplineSet
243 86 m 3
 243 25 196 -8 133 -8 c 3
 68 -8 19 35 19 107 c 2
 19 440 l 2
 19 529 54 591 147 591 c 27
 184 591 200 584 227 576 c 1
 227 510 l 1
 201 518 177 530 145 530 c 3
 102 530 90 489 90 440 c 2
 90 176 l 1
 107 182 123 184 139 184 c 3
 200 184 243 148 243 86 c 3
145 41 m 3
 169 41 191 62 191 86 c 3
 191 113 170 133 145 133 c 3
 119 133 97 112 97 86 c 3
 97 61 121 41 145 41 c 3
EndSplineSet
EndChar

StartChar: uni0EC2
Encoding: 3778 3778 43
Width: 408
VWidth: 1063
Flags: W
HStem: -8 55<170.052 244.702> 126 46<171.412 243.393> 715 69<169.695 290.356> 864 64<-37.0117 15.9177>
VStem: -106 67<812.121 863.917> 98 68<51.6143 120.464 165 488.095> 249 50<52.3541 120.076>
LayerCount: 2
Fore
SplineSet
204 172 m 3
 256 172 299 136 299 84 c 3
 299 23 267 -8 202 -8 c 3
 142 -8 98 17 98 77 c 2
 98 449 l 2
 98 476 110 507 126 516 c 2
 199 559 l 1
 175 564 150 575 126 594 c 0
 51 652 -24 711 -82 785 c 0
 -98 806 -106 824 -106 838 c 3
 -106 898 -78 928 -22 928 c 3
 2 928 30 915 64 889 c 0
 96 864 163 808 187 794 c 0
 197 788 210 784 224 784 c 3
 251 784 268 795 290 800 c 1
 294 728 l 1
 270 723 242 715 224 715 c 3
 202 715 180 722 159 736 c 0
 109 770 63 805 18 841 c 0
 -2 857 -16 864 -22 864 c 1
 -31 862 -39 859 -39 849 c 0
 -39 845 -38 834 -27 822 c 0
 34 755 99 697 171 641 c 0
 185 630 213 619 252 607 c 0
 279 599 293 588 293 576 c 3
 293 550 282 550 250 529 c 2
 202 499 l 2
 178 483 166 467 166 449 c 2
 166 165 l 1
 176 170 188 172 204 172 c 3
207 47 m 3
 230 47 249 63 249 86 c 3
 249 107 230 126 207 126 c 3
 187 126 166 107 166 86 c 3
 166 64 184 47 207 47 c 3
EndSplineSet
EndChar

StartChar: uni0EC3
Encoding: 3779 3779 44
Width: 280
VWidth: 1057
Flags: W
HStem: -8 52<100.768 159.908> 118 48<105.272 159.908> 555 32<74.7188 87.5407> 665 57<26.5812 118.965> 908 63<47.6509 192.344>
VStem: -58 59<746.759 865.492> 36 69<163 494.941> 36 61<47.9615 115.253> 122 57<727.771 789.23> 164 47<46.5383 115.524> 238 57<706.956 862.807>
LayerCount: 2
Fore
SplineSet
164 81 m 3xfd60
 164 100 149 118 131 118 c 3
 112 118 97 100 97 81 c 3
 97 62 112 44 131 44 c 3
 149 44 164 62 164 81 c 3xfd60
126 166 m 3
 173 166 211 125 211 78 c 3
 211 31 173 -8 126 -8 c 3
 62 -8 36 49 36 93 c 2xfd60
 36 413 l 2
 36 474 78 546 134 576 c 1
 113 565 94 558 78 555 c 1
 63 587 l 1
 154 640 205 680 218 710 c 0
 232 742 238 768 238 796 c 3
 238 861 191 908 123 908 c 3
 60 908 1 871 1 802 c 3
 1 760 34 722 76 722 c 3
 99 722 122 735 122 755 c 3
 122 778 102 792 82 796 c 1
 116 841 l 1
 151 826 179 803 179 761 c 3
 179 697 131 665 66 665 c 0
 -6 665 -58 735 -58 813 c 3
 -58 904 14 971 104 971 c 3
 219 971 295 911 295 800 c 3
 295 731 272 686 227 641 c 1
 234 644 241 647 250 650 c 1
 268 621 l 1
 203 575 161 543 141 524 c 0
 117 501 105 471 105 433 c 2
 105 163 l 1xfea0
 112 164 119 166 126 166 c 3
EndSplineSet
EndChar

StartChar: uni0EC4
Encoding: 3780 3780 45
Width: 346
VWidth: 1063
Flags: W
HStem: -8 53<147.759 218.395> 124 50<145.889 216.441> 608 63<143.43 222.276>
VStem: 41 66<635.032 766.59> 80 65<47.6931 120.982 166 466.656> 222 47<49.8654 119.205> 223 62<565.16 607.917>
LayerCount: 2
Fore
SplineSet
180 45 m 3xe4
 204 45 222 60 222 83 c 3
 222 104 204 124 184 124 c 3
 162 124 143 111 143 88 c 3
 143 65 158 45 180 45 c 3xe4
179 -8 m 3
 120 -8 80 19 80 77 c 2
 80 430 l 2xec
 80 467 90 492 112 507 c 2
 158 538 l 2
 182 554 223 570 223 595 c 3
 223 604 218 608 206 608 c 3
 159 608 99 560 73 519 c 1
 3 524 l 1
 26 575 41 596 41 639 c 3
 41 716 5 843 -46 894 c 1
 -6 963 l 1
 52 886 107 759 107 652 c 3
 107 646 107 640 107 634 c 1xf2
 132 651 172 671 210 671 c 3
 252 671 285 633 285 593 c 3
 285 555 261 530 243 518 c 2
 164 465 l 2
 152 457 145 452 145 430 c 2
 145 166 l 1xea
 154 171 166 174 180 174 c 3
 228 174 269 133 269 84 c 3
 269 23 239 -8 179 -8 c 3
EndSplineSet
EndChar

StartChar: uni0EC6
Encoding: 3782 3782 46
Width: 597
VWidth: 1063
Flags: W
HStem: -205 66<164.15 354.858> 304 56<113.627 182.126> 433 44<115.197 182.068> 461 64<219.318 294.374> 525 66<72.8526 174.477 336.134 427.197>
VStem: -1 49<393.313 499.772> 69 42<392.964 428.878> 185 41<364 429.474> 436 61<-78.8633 519.281>
LayerCount: 2
Fore
SplineSet
144 304 m 3xef80
 61 304 -1 374 -1 456 c 3
 -1 530 58 591 132 591 c 3xef80
 181 591 235 525 252 525 c 3xd780
 285 525 330 591 379 591 c 3xcf80
 461 591 497 545 497 467 c 2
 497 -42 l 2
 497 -146 362 -205 247 -205 c 3
 161 -205 103 -165 62 -119 c 1
 105 -42 l 1
 139 -97 159 -139 247 -139 c 3
 319 -139 436 -100 436 -37 c 2
 436 437 l 2
 436 509 426 527 380 527 c 3
 352 527 299 461 253 461 c 3xd780
 193 461 177 525 130 525 c 3
 80 525 48 492 48 439 c 3
 48 425 62 399 69 392 c 1
 69 395 69 398 69 401 c 3
 69 443 101 477 144 477 c 3
 190 477 226 437 226 391 c 3
 226 347 191 304 144 304 c 3xef80
185 397 m 3
 185 419 169 433 147 433 c 3
 125 433 111 414 111 395 c 3
 111 373 128 360 150 360 c 3
 171 360 185 377 185 397 c 3
EndSplineSet
EndChar

StartChar: uni0EC8
Encoding: 3784 3784 47
Width: 0
VWidth: 1063
Flags: W
HStem: 641 200<-259 -191>
VStem: -259 68<641 841>
LayerCount: 2
Fore
SplineSet
-191 641 m 1
 -259 641 l 1
 -259 841 l 1
 -191 841 l 1
 -191 641 l 1
EndSplineSet
EndChar

StartChar: uni0EC9
Encoding: 3785 3785 48
Width: 0
VWidth: 1063
Flags: W
HStem: 656 56<-371 -239.51> 798 48<-465.926 -413.899>
VStem: -525 58<766 797.246> -412 63<735.571 796.461>
LayerCount: 2
Fore
SplineSet
-438 846 m 3
 -392 846 -349 811 -349 766 c 3
 -349 748 -356 730 -371 712 c 1
 -231 712 -176 763 -162 811 c 2
 -148 859 l 1
 -127 840 -105 822 -83 803 c 1
 -97 765 l 2
 -114 717 -214 656 -402 656 c 2
 -548 656 l 1
 -548 692 -511 702 -467 720 c 0
 -441 730 -412 743 -412 767 c 3
 -412 785 -422 798 -441 798 c 3
 -459 798 -467 787 -467 766 c 1
 -486 760 -505 754 -524 748 c 1
 -524 748 -525 759 -525 764 c 3
 -525 804 -491 846 -438 846 c 3
EndSplineSet
EndChar

StartChar: uni0ECA
Encoding: 3786 3786 49
Width: 0
VWidth: 1063
Flags: W
HStem: 765 64<-378.401 -304.639 -215.127 -144.592>
VStem: -444 63<698.133 760.624> -142 65<733 759.706> -53 62<736.641 823.627>
LayerCount: 2
Fore
SplineSet
-22 825 m 3
 -2 825 9 809 9 791 c 27
 9 713 -47 655 -108 642 c 0
 -121 639 -138 632 -148 632 c 3
 -165 632 -180 651 -182 669 c 0
 -182 678 -180 686 -172 689 c 0
 -159 694 -142 715 -142 733 c 3
 -142 753 -168 766 -191 766 c 3
 -199 766 -211 752 -229 722 c 2
 -259 672 l 1
 -289 721 l 2
 -307 750 -322 765 -333 765 c 3
 -359 765 -381 756 -381 734 c 3
 -381 711 -366 700 -345 689 c 0
 -335 683 -330 674 -330 662 c 3
 -330 646 -345 629 -362 629 c 3
 -368 629 -374 631 -380 634 c 0
 -423 663 -444 678 -444 734 c 3
 -444 794 -396 829 -334 829 c 3
 -306 829 -276 797 -260 781 c 1
 -243 803 -217 830 -187 830 c 3
 -133 830 -77 787 -77 733 c 1
 -61 752 -53 790 -53 801 c 3
 -53 815 -37 825 -22 825 c 3
EndSplineSet
EndChar

StartChar: uni0ECB
Encoding: 3787 3787 50
Width: 0
VWidth: 1063
Flags: W
HStem: 734 76<-302 -224 -146 -68>
VStem: -224 78<653 734 810 892>
LayerCount: 2
Fore
SplineSet
-146 653 m 1
 -224 653 l 1
 -224 734 l 1
 -302 734 l 1
 -302 810 l 1
 -224 810 l 1
 -224 892 l 1
 -146 892 l 1
 -146 810 l 1
 -68 810 l 1
 -68 734 l 1
 -146 734 l 1
 -146 653 l 1
EndSplineSet
EndChar

StartChar: uni0ECC
Encoding: 3788 3788 51
Width: 0
VWidth: 1063
Flags: W
HStem: 635 38<-263.843 -198.421>
VStem: -319 53<675.519 736.606> -194 50<675.797 736.891>
LayerCount: 2
Fore
SplineSet
-228 673 m 3
 -210 673 -194 689 -194 709 c 3
 -194 729 -210 739 -232 739 c 3
 -252 739 -266 721 -266 703 c 3
 -266 683 -250 673 -228 673 c 3
-237 635 m 3
 -279 635 -319 665 -319 702 c 3
 -319 761 -267 791 -214 797 c 0
 -133 806 -77 838 -62 897 c 2
 -50 945 l 1
 -32 925 -12 908 7 889 c 1
 2 869 l 2
 -14 804 -86 769 -168 754 c 1
 -153 748 -144 733 -144 714 c 3
 -144 666 -190 635 -237 635 c 3
EndSplineSet
EndChar

StartChar: uni0ECD
Encoding: 3789 3789 52
Width: 0
VWidth: 1063
Flags: W
HStem: 670 59<-336.053 -262.104> 812 56<-335.804 -262.438>
VStem: -401 59<734.392 806.326> -257 59<734.053 806.434>
LayerCount: 2
Fore
SplineSet
-401 769 m 3
 -401 826 -357 868 -300 868 c 3
 -244 868 -198 826 -198 769 c 3
 -198 713 -244 670 -300 670 c 259
 -357 670 -401 713 -401 769 c 3
-300 812 m 3
 -323 812 -342 793 -342 770 c 259
 -342 747 -323 729 -300 729 c 3
 -275 729 -257 746 -257 770 c 259
 -257 794 -276 812 -300 812 c 3
EndSplineSet
EndChar

StartChar: uni0ED0
Encoding: 3792 3792 53
Width: 646
VWidth: 1063
Flags: W
HStem: -8 68<186.988 377.23> 522 69<190.251 384.223>
VStem: 22 71<163.278 412.099> 472 75<168.241 427.237>
LayerCount: 2
Fore
SplineSet
285 591 m 3
 467 591 547 486 547 292 c 3
 547 113 453 -8 285 -8 c 3
 110 -8 22 100 22 292 c 3
 22 480 109 591 285 591 c 3
285 60 m 3
 412 60 472 153 472 292 c 3
 472 444 422 522 285 522 c 3
 156 522 93 434 93 292 c 3
 93 143 150 60 285 60 c 3
EndSplineSet
EndChar

StartChar: uni0ED1
Encoding: 3793 3793 54
Width: 657
VWidth: 1063
Flags: W
HStem: -8 21G<181 241> 165 78<171.6 293.371> 308 39<227.256 295.669> 532 59<170.028 370.708>
VStem: 11 76<275.266 446.867> 175 49<246.273 304.72> 297 63<246.412 303.115> 480 78<212.478 422.47>
LayerCount: 2
Fore
SplineSet
200 219 m 1
 182 233 175 249 175 273 c 3
 175 320 216 347 268 347 c 3
 317 347 360 321 360 276 c 3
 360 209 293 165 226 165 c 3
 93 165 11 232 11 362 c 3
 11 516 116 591 269 591 c 3
 433 591 558 494 558 328 c 3
 558 231 526 166 484 124 c 0
 420 56 293 -8 189 -8 c 3
 173 -8 154 -7 142 -3 c 1
 142 5 176 25 181 27 c 0
 265 68 350 97 420 162 c 0
 455 195 480 241 480 305 c 3
 480 456 406 532 261 532 c 3
 155 532 87 465 87 352 c 3
 87 273 133 233 200 219 c 1
260 243 m 3
 277 243 297 257 297 276 c 3
 297 284 298 299 289 299 c 3
 279 299 272 308 261 308 c 3
 242 308 224 295 224 275 c 3
 224 257 243 243 260 243 c 3
EndSplineSet
EndChar

StartChar: uni0ED2
Encoding: 3794 3794 55
Width: 650
VWidth: 1063
Flags: W
HStem: -8 64<193.803 390.53> 172 54<399.718 455.93>
VStem: 11 77<159.529 347.903> 335 64<119.264 170.647> 457 62<119.49 170.968>
LayerCount: 2
Fore
SplineSet
393 78 m 1
 360 91 335 100 335 144 c 3
 335 194 377 226 436 226 c 3
 477 226 519 194 519 152 c 3
 519 50 404 -8 292 -8 c 3
 115 -8 11 94 11 269 c 3
 11 366 67 418 130 469 c 0
 240 559 385 632 448 691 c 0
 464 706 478 725 491 746 c 1
 499 743 503 719 503 706 c 3
 503 664 492 658 467 633 c 0
 421 587 291 508 170 414 c 0
 129 382 88 337 88 266 c 3
 88 128 167 56 307 56 c 3
 347 56 363 62 393 78 c 1
428 118 m 3
 444 118 457 130 457 147 c 3
 457 161 442 172 428 172 c 3
 412 172 399 160 399 146 c 3
 399 129 412 118 428 118 c 3
EndSplineSet
EndChar

StartChar: uni0ED3
Encoding: 3795 3795 56
Width: 665
VWidth: 1063
Flags: W
HStem: -8 66<326.199 437.898> -8 54<58.5595 114.129> 99 50<57.6585 113.923> 428 66<184.857 218.219> 735 71<203 289.556>
VStem: 3 54<47.3846 98.704> 102 70<215.796 424.241> 151 77<722.357 761> 228 75<212.089 426.261> 483 75<124.953 480.187>
LayerCount: 2
Fore
SplineSet
115 73 m 3x7c40
 115 87 97 99 82 99 c 3
 68 99 57 89 57 74 c 3
 57 59 67 46 85 46 c 3
 100 46 115 58 115 73 c 3x7c40
200 428 m 3
 179 428 172 336 172 298 c 3
 172 260 189 225 202 198 c 1
 214 236 228 287 228 331 c 3x3ec0
 228 364 223 428 200 428 c 3
522 634 m 3
 522 614 492 607 463 607 c 1
 463 618 460 625 455 628 c 0
 394 664 318 704 264 724 c 0
 247 730 235 735 230 735 c 3
 229 735 228 735 228 734 c 3
 228 732 237 728 239 727 c 0
 331 680 465 610 513 536 c 0
 554 472 558 385 558 285 c 3
 558 106 509 -8 383 -8 c 3xbd40
 324 -8 248 42 212 83 c 1
 187 41 147 -8 95 -8 c 3
 45 -8 3 24 3 71 c 3
 3 116 42 149 90 149 c 3
 114 149 144 138 154 119 c 1
 166 138 l 1
 131 178 102 230 102 305 c 3
 102 388 129 494 205 494 c 3
 274 494 303 400 303 332 c 3x7ec0
 303 252 277 186 249 140 c 1
 279 100 349 58 403 58 c 3
 464 58 483 194 483 280 c 3
 483 389 479 450 451 503 c 0
 414 572 296 622 208 671 c 0
 185 684 151 714 151 745 c 3xbd40
 151 777 186 806 220 806 c 3
 253 806 268 797 285 788 c 0
 356 751 428 715 496 675 c 0
 505 669 522 650 522 634 c 3
EndSplineSet
EndChar

StartChar: uni0ED4
Encoding: 3796 3796 57
Width: 695
VWidth: 1063
Flags: W
HStem: -8 60<141.942 241.981 416.792 494.81> 89 58<413.252 494.015> 171 44<422.508 487.925> 270 53<422.901 488.287>
VStem: 18 72<131.893 395.925> 285 67<127.496 224.066> 489 67<216.015 267.6> 495 79<46.9706 88.0543> 510 52<628.13 700.516>
LayerCount: 2
Fore
SplineSet
370 127 m 1xfe
 396 137 439 147 472 147 c 3
 530 147 574 120 574 66 c 3xfd
 574 12 523 -8 466 -8 c 3
 420 -8 367 27 341 53 c 1
 288 30 223 -8 168 -8 c 3
 52 -8 18 145 18 270 c 0
 18 446 58 496 194 530 c 2
 403 582 l 2
 456 596 510 621 510 689 c 3
 510 700 508 714 503 729 c 1
 530 714 562 687 562 651 c 3xfc80
 562 580 500 551 430 534 c 0
 337 510 268 493 191 468 c 0
 115 440 90 377 90 270 c 3
 90 190 115 52 182 52 c 3
 201 52 272 88 304 102 c 1
 296 115 285 146 285 172 c 3
 285 272 352 323 446 323 c 3
 499 323 556 299 556 247 c 3
 556 198 509 171 452 171 c 3
 400 171 383 189 363 226 c 1
 356 206 352 188 352 173 c 3
 352 154 358 138 370 127 c 1xfe
489 245 m 3xfe
 489 256 475 270 454 270 c 3
 439 270 421 261 421 245 c 3
 421 228 439 215 459 215 c 3
 479 215 489 226 489 245 c 3xfe
467 46 m 3
 482 46 495 57 495 69 c 3xfd
 495 83 487 89 470 89 c 3
 439 89 438 89 412 79 c 1
 424 63 441 46 467 46 c 3
EndSplineSet
EndChar

StartChar: uni0ED5
Encoding: 3797 3797 58
Width: 717
VWidth: 1063
Flags: W
HStem: -8 60<141.942 241.981 416.792 494.81> 89 58<413.252 494.015> 171 44<422.508 487.925> 270 53<422.901 488.287> 613 27<241.521 316.862>
VStem: 18 72<131.893 395.925> 191 44<560.975 608.99> 285 67<127.496 224.066> 324 45<573.086 608.858> 489 67<216.015 267.6> 495 79<46.9706 88.0543> 510 52<628.13 700.516>
LayerCount: 2
Back
SplineSet
370 127 m 1xfe
 396 137 439 147 472 147 c 3
 530 147 574 120 574 66 c 3xfd
 574 12 523 -8 466 -8 c 3
 420 -8 367 27 341 53 c 1
 288 30 223 -8 168 -8 c 3
 52 -8 18 145 18 270 c 0
 18 446 58 496 194 530 c 2
 403 582 l 2
 456 596 510 621 510 689 c 3
 510 700 508 714 503 729 c 1
 530 714 562 687 562 651 c 3xfc80
 562 580 500 551 430 534 c 0
 337 510 268 493 191 468 c 0
 115 440 90 377 90 270 c 3
 90 190 115 52 182 52 c 3
 201 52 272 88 304 102 c 1
 296 115 285 146 285 172 c 3
 285 272 352 323 446 323 c 3
 499 323 556 299 556 247 c 3
 556 198 509 171 452 171 c 3
 400 171 383 189 363 226 c 1
 356 206 352 188 352 173 c 3
 352 154 358 138 370 127 c 1xfe
489 245 m 3xfe
 489 256 475 270 454 270 c 3
 439 270 421 261 421 245 c 3
 421 228 439 215 459 215 c 3
 479 215 489 226 489 245 c 3xfe
467 46 m 3
 482 46 495 57 495 69 c 3xfd
 495 83 487 89 470 89 c 3
 439 89 438 89 412 79 c 1
 424 63 441 46 467 46 c 3
280 640 m 259
 320 640 369 620 369 583 c 259
 369 546 320 526 280 526 c 259
 240 526 191 546 191 583 c 259
 191 620 240 640 280 640 c 259
324 585 m 259
 324 603 300 613 280 613 c 3
 260 613 235 604 235 585 c 259
 235 566 260 557 280 557 c 3
 300 557 324 567 324 585 c 259
EndSplineSet
Fore
SplineSet
324 585 m 3xfe80
 324 603 300 613 280 613 c 3
 260 613 235 604 235 585 c 3
 235 566 260 557 280 557 c 3
 300 557 324 567 324 585 c 3xfe80
280 640 m 3
 320 640 369 620 369 583 c 3
 369 580 369 576 368 573 c 1
 403 582 l 2
 456 596 510 621 510 689 c 3
 510 700 508 714 503 729 c 1
 530 714 562 687 562 651 c 3xfe90
 562 580 500 551 430 534 c 0
 337 510 268 493 191 468 c 0
 115 440 90 377 90 270 c 3
 90 190 115 52 182 52 c 3
 201 52 272 88 304 102 c 1
 296 115 285 146 285 172 c 3
 285 272 352 323 446 323 c 3
 499 323 556 299 556 247 c 3xff40
 556 198 509 171 452 171 c 3
 400 171 383 189 363 226 c 1
 356 206 352 188 352 173 c 3
 352 154 358 138 370 127 c 1
 396 137 439 147 472 147 c 3
 530 147 574 120 574 66 c 3xff20
 574 12 523 -8 466 -8 c 3
 420 -8 367 27 341 53 c 1
 288 30 223 -8 168 -8 c 3
 52 -8 18 145 18 270 c 3
 18 446 58 496 194 530 c 2
 226 538 l 1
 206 548 191 563 191 583 c 3
 191 620 240 640 280 640 c 3
467 46 m 3
 482 46 495 57 495 69 c 3xfe20
 495 83 487 89 470 89 c 3
 439 89 438 89 412 79 c 1
 424 63 441 46 467 46 c 3
489 245 m 3xfe40
 489 256 475 270 454 270 c 3
 439 270 421 261 421 245 c 3
 421 228 439 215 459 215 c 3
 479 215 489 226 489 245 c 3xfe40
EndSplineSet
EndChar

StartChar: uni0ED6
Encoding: 3798 3798 59
Width: 654
VWidth: 1063
Flags: W
HStem: -8 58<130.979 228.851 340.235 422.003> 367 62<134.142 174.18> 466 54<135.893 174.649> 585 21G<460 470.5> 710 68<186 273.461>
VStem: 10 76<116.218 386.07> 133 78<697.882 738> 175 60<429.072 465.308> 202 65<156.668 222.849> 282 68<156.589 222.831> 466 75<118.416 464.592>
LayerCount: 2
Fore
SplineSet
274 156 m 1xfce0
 279 171 278 198 282 214 c 1
 282 220 280 223 273 223 c 3
 269 223 267 215 267 205 c 3
 267 187 271 172 274 156 c 1xfce0
154 429 m 3
 165 429 175 436 175 447 c 3xfd60
 175 458 164 466 152 466 c 3
 144 466 134 458 134 445 c 3
 134 434 144 429 154 429 c 3
158 367 m 3
 125 367 117 370 98 389 c 1
 87 343 86 311 86 260 c 3
 86 173 104 50 176 50 c 3
 198 50 231 64 237 85 c 1
 221 108 202 143 202 181 c 3xfce0
 202 232 230 282 280 282 c 3
 321 282 350 248 350 208 c 3
 350 166 330 121 318 90 c 1
 338 74 356 52 393 52 c 3
 446 52 466 197 466 267 c 3
 466 398 462 428 435 485 c 0
 404 550 245 618 190 649 c 0
 166 663 133 687 133 720 c 3xfe60
 133 756 167 778 205 778 c 3
 232 778 238 771 267 760 c 0xfce0
 338 725 410 690 479 652 c 0
 488 646 506 628 506 613 c 3
 506 597 478 585 463 585 c 3
 457 585 451 586 446 587 c 1
 446 595 445 603 438 607 c 0
 397 632 289 684 246 700 c 0
 229 706 218 710 214 710 c 3
 213 710 211 710 211 709 c 3xfe60
 211 708 218 705 220 704 c 0
 310 659 454 583 496 515 c 0
 534 453 541 391 541 273 c 3
 541 153 508 -8 396 -8 c 3
 359 -8 308 18 282 42 c 1
 261 23 209 -8 170 -8 c 3
 56 -8 10 132 10 255 c 3
 10 373 41 520 153 520 c 3
 190 520 235 493 235 454 c 3
 235 403 200 367 158 367 c 3
EndSplineSet
EndChar

StartChar: uni0ED7
Encoding: 3799 3799 60
Width: 612
VWidth: 1057
Flags: W
HStem: -8 52<59.9535 120.859> 107 55<60.2226 121.561> 411 57<68.5439 121.82> 531 60<64.6265 131.796 238.707 399.637>
VStem: 1 57<45.8046 104.982 477.386 531.626> 122 69<45.4963 105.557 156 412> 428 69<-176 500.482>
LayerCount: 2
Fore
SplineSet
328 591 m 3
 434 591 497 529 497 420 c 2
 497 -176 l 1
 428 -176 l 1
 428 410 l 2
 428 485 408 531 336 531 c 3
 275 531 191 513 191 422 c 2
 191 116 l 2
 191 39 168 -8 91 -8 c 3
 32 -8 1 18 1 75 c 3
 1 128 31 162 83 162 c 3
 96 162 109 160 122 156 c 1
 122 412 l 1
 122 412 112 411 107 411 c 3
 53 411 7 450 7 508 c 3
 7 556 45 591 97 591 c 3
 144 591 168 567 186 542 c 1
 215 576 264 591 328 591 c 3
105 468 m 259
 122 468 134 481 134 498 c 3
 134 519 114 534 93 534 c 3
 74 534 64 523 64 506 c 3
 64 485 85 468 105 468 c 259
123 76 m 3
 123 95 108 107 90 107 c 3
 72 107 58 91 58 74 c 3
 58 56 71 44 91 44 c 3
 109 44 123 59 123 76 c 3
EndSplineSet
EndChar

StartChar: uni0ED8
Encoding: 3800 3800 61
Width: 707
VWidth: 1063
Flags: W
HStem: -328 68<440.606 504.057> -270 63<87 208.62> 223 65<137.741 198.293> 351 65<137.883 198.182> 518 73<102.774 171.988 421.158 489.523>
VStem: 22 69<380.693 512.321> 31 81<-206.074 -160.681> 200 62<289.418 348.397> 366 70<-255.221 -195.953> 494 75<-75.7743 518.724> 505 76<-258.436 -199.499>
LayerCount: 2
Fore
SplineSet
475 -260 m 3xb9a0
 493 -260 505 -251 505 -236 c 3
 505 -216 489 -195 469 -195 c 3
 452 -195 436 -200 436 -220 c 3
 436 -242 452 -260 475 -260 c 3xb9a0
200 320 m 3
 200 338 185 351 168 351 c 3
 150 351 136 337 136 318 c 3
 136 302 149 288 168 288 c 3
 188 288 200 301 200 320 c 3
581 -232 m 3
 581 -290 541 -328 482 -328 c 3xb9a0
 401 -328 366 -292 366 -231 c 2
 366 -192 l 1
 296 -224 183 -270 110 -270 c 3
 64 -270 31 -236 31 -196 c 3
 31 -156 50 -134 86 -111 c 0
 169 -58 305 -39 483 44 c 1
 475 -28 426 -48 354 -73 c 0
 282 -98 194 -129 132 -161 c 0
 119 -168 112 -176 112 -185 c 3x7ba0
 112 -198 122 -207 136 -207 c 3
 151 -207 174 -200 204 -188 c 0
 296 -146 411 -108 494 -66 c 1
 494 432 l 2
 494 516 486 522 460 522 c 3
 432 522 360 419 308 419 c 3
 226 419 177 518 126 518 c 3
 98 518 91 456 91 429 c 3
 91 424 94 399 96 379 c 1
 110 403 137 416 173 416 c 3
 230 416 262 376 262 320 c 3
 262 262 223 223 165 223 c 3
 65 223 22 327 22 429 c 3
 22 549 76 591 123 591 c 3
 173 591 244 522 301 491 c 1
 341 523 422 591 466 591 c 3
 541 591 569 547 569 448 c 2
 569 -91 l 2x7dc0
 569 -100 499 -117 479 -123 c 1
 537 -123 581 -174 581 -232 c 3
EndSplineSet
EndChar

StartChar: uni0ED9
Encoding: 3801 3801 62
Width: 781
VWidth: 1063
Flags: W
HStem: -8 57<120.584 195.706 423.834 553.103> 116 57<118.683 198.559> 530 61<143.424 284.069>
VStem: 23 75<163 489.006> 201 73<57.3494 112.45> 318 76<78.6978 498.418> 580 77<77.6406 528.258>
LayerCount: 2
Fore
SplineSet
541 577 m 3
 541 598 554 604 574 607 c 1
 630 573 657 523 657 465 c 2
 657 145 l 2
 657 42 594 -8 497 -8 c 3
 410 -8 318 16 318 123 c 2
 318 460 l 2
 318 494 265 530 215 530 c 3
 144 530 98 476 98 445 c 2
 98 163 l 1
 119 170 138 173 154 173 c 3
 226 173 274 150 274 79 c 3
 274 20 214 -8 154 -8 c 3
 71 -8 23 50 23 140 c 2
 23 423 l 2
 23 537 98 591 215 591 c 3
 314 591 394 546 394 456 c 2
 394 137 l 2
 394 73 441 49 500 49 c 3
 553 49 580 94 580 137 c 2
 580 473 l 2
 580 499 541 550 541 577 c 3
201 86 m 3
 201 103 184 116 164 116 c 3
 141 116 116 105 116 84 c 3
 116 66 137 51 159 51 c 3
 180 51 201 68 201 86 c 3
EndSplineSet
EndChar

StartChar: uni0EDC
Encoding: 3804 3804 63
Width: 1052
VWidth: 1063
Flags: W
HStem: -8 68<125.33 284.396 709.504 844.437> 0 21G<525 626.5> 396 60<75.2325 123.565> 447 52<284.729 342.71> 530 61<461.364 559.236> 537 54<73.7404 144.425> 549 42<284.206 347.715> 560 20G<837 926>
VStem: -2 78<104.456 224.424 458.569 534.428> 150 86<460.401 531.603> 238 45<501.295 545.498> 342 77<112.603 449.645> 573 80<107.555 517.865> 871 70<85.9805 559.144>
LayerCount: 2
Fore
SplineSet
283 525 m 3x12fc
 283 508 300 499 318 499 c 3
 331 499 341 501 353 502 c 1
 353 527 342 549 322 549 c 3
 300 549 283 536 283 525 c 3x12fc
70 496 m 3
 70 472 89 456 111 456 c 3
 134 456 150 476 150 496 c 3
 150 515 134 537 111 537 c 3x24fc
 85 537 70 522 70 496 c 3
573 457 m 2
 573 505 552 530 517 530 c 3x48fc
 488 530 455 511 419 466 c 1
 419 150 l 2
 419 69 316 -8 211 -8 c 3
 89 -8 -2 46 -2 172 c 3
 -2 252 87 343 124 398 c 1
 124 398 109 396 104 396 c 3
 49 396 -1 437 -1 489 c 3
 -1 551 45 591 107 591 c 3xa4fc
 175 591 236 554 236 491 c 3
 236 360 76 239 76 172 c 3
 76 95 136 60 208 60 c 3
 276 60 342 111 342 160 c 2
 343 447 l 1
 286 454 238 459 238 520 c 3
 238 569 276 591 325 591 c 3x92fc
 372 591 397 574 412 535 c 1
 433 576 473 591 531 591 c 3x08fc
 609 591 652 555 652 474 c 2
 653 129 l 1
 697 83 732 63 779 63 c 3
 837 63 871 91 871 140 c 2
 871 482 l 2
 871 524 852 556 837 580 c 1
 918 580 l 1
 934 547 941 513 941 482 c 2
 941 116 l 2
 941 30 858 -8 766 -8 c 3x81fc
 715 -8 676 4 649 36 c 1
 639 23 631 11 622 0 c 1
 525 0 l 1x40fc
 547 26 573 65 573 109 c 2
 573 457 l 2
EndSplineSet
EndChar

StartChar: uni0EDD
Encoding: 3805 3805 64
Width: 1073
VWidth: 1063
Flags: W
HStem: -8 68<130.408 292.513 512.234 586.289 709.948 849.858> 140 70<512.405 577.741> 396 60<79.4506 128.565> 447 52<289.729 347.71> 530 61<466.364 563.804> 537 54<79.5288 148.392> 549 42<289.585 352.715> 560 20G<842 931>
VStem: 4 77<104.456 221.683 458.417 534.385> 155 86<461.412 531.397> 243 46<501.131 546.722> 347 77<109.054 449.645> 446 62<64.5017 135.085> 578 79<205 514.876> 591 66<103.058 134.464> 876 70<85.9805 559.8>
LayerCount: 2
Fore
SplineSet
289 525 m 3xd2f9
 289 507 304 499 323 499 c 3
 336 499 346 501 358 502 c 1
 358 527 347 549 327 549 c 3
 306 549 289 542 289 525 c 3xd2f9
116 456 m 3xe4f9
 139 456 155 476 155 496 c 3
 155 515 139 537 116 537 c 3
 91 537 75 521 75 496 c 3
 75 473 94 456 116 456 c 3xe4f9
243 520 m 3
 243 568 281 591 330 591 c 3xd2fd
 377 591 402 574 417 535 c 1
 438 576 478 591 536 591 c 3
 614 591 657 555 657 474 c 2xc8fd
 657 144 l 2
 657 94 738 63 784 63 c 3
 848 63 876 94 876 140 c 2
 876 482 l 2
 876 534 857 555 842 580 c 1
 923 580 l 1xc1fb
 939 547 946 513 946 482 c 2
 946 116 l 2
 946 30 863 -8 771 -8 c 3
 718 -8 676 6 637 31 c 1
 611 5 583 -8 555 -8 c 3
 494 -8 446 42 446 103 c 3
 446 162 494 210 556 210 c 3
 562 210 569 208 578 205 c 1
 578 457 l 2
 578 499 557 530 522 530 c 3
 493 530 460 511 424 466 c 1
 424 150 l 2
 424 79 333 -8 216 -8 c 3
 94 -8 4 46 4 172 c 3
 4 255 92 343 129 398 c 1
 129 398 114 396 109 396 c 3xe8fd
 61 396 5 430 5 489 c 3
 5 551 51 591 113 591 c 3
 181 591 241 553 241 491 c 3
 241 371 81 229 81 172 c 3
 81 95 141 60 213 60 c 3
 284 60 347 109 347 160 c 2
 348 447 l 1xd4fd
 291 454 243 459 243 520 c 3
591 100 m 3xc0fb
 591 121 572 140 549 140 c 3
 527 140 508 123 508 101 c 3
 508 76 525 60 549 60 c 3
 571 60 591 77 591 100 c 3xc0fb
EndSplineSet
EndChar

StartChar: uni0E92
Encoding: 3730 3730 68
Width: 1082
VWidth: 1063
Flags: W
HStem: -8 68<452.554 537.044 645.905 794.241> -8 58<156.084 227.375> 136 42<156.789 229.442> 153 63<451.84 537.166> 524 67<111.834 207.012 405.98 505.382> 560 20G<790 887.5>
VStem: 4 75<119.043 488.918> 234 57<56.2602 131.622> 374 70<67.9009 144.012> 546 76<82.9657 143.139 202 473> 828 77<91.5312 551.335>
LayerCount: 2
Fore
SplineSet
150 94 m 3x63e0
 150 71 165 50 191 50 c 3
 218 50 234 75 234 95 c 3
 234 117 220 136 192 136 c 3
 165 136 150 113 150 94 c 3x63e0
546 108 m 3
 546 132 519 153 494 153 c 3
 469 153 444 133 444 108 c 3
 444 79 466 60 494 60 c 3x93e0
 520 60 546 81 546 108 c 3
496 216 m 3
 510 216 530 209 546 202 c 1
 546 371 l 2
 546 439 517 524 463 524 c 3
 414 524 373 476 349 434 c 0
 342 420 329 405 311 405 c 3
 297 405 280 421 275 432 c 0
 249 470 199 524 153 524 c 3
 115 524 79 474 79 409 c 2
 79 192 l 2
 79 165 80 129 95 115 c 1
 105 155 141 178 189 178 c 3
 247 178 291 144 291 87 c 3
 291 29 244 -8 181 -8 c 3
 76 -8 4 67 4 169 c 2
 3 396 l 2
 3 505 55 591 156 591 c 3
 223 591 280 554 310 509 c 1
 342 549 393 591 464 591 c 3x6be0
 567 591 622 502 622 393 c 2
 622 102 l 1
 645 79 668 60 717 60 c 3
 776 60 828 88 828 145 c 2
 828 479 l 2
 828 508 809 552 790 580 c 1
 879 580 l 1x87e0
 896 546 905 512 905 479 c 2
 905 120 l 2
 905 40 801 -8 717 -8 c 3
 666 -8 623 5 586 32 c 1
 557 5 526 -8 495 -8 c 3
 428 -8 374 40 374 106 c 3
 374 167 430 216 496 216 c 3
EndSplineSet
EndChar

StartChar: uni0EAC
Encoding: 3756 3756 69
Width: 645
VWidth: 1063
Flags: W
HStem: -8 44<127.733 206.886> 0 21G<364 495.5> 120 44<125.641 208.666> 333 63<192.646 397.417> 450 65<300.739 434.085> 532 59<70.3435 190.386>
VStem: 1 66<107.897 241.368 465.351 527.75> 213 47<42.1688 114.211> 487 70<99.4446 262.018>
LayerCount: 2
Fore
SplineSet
121 80 m 3xbf80
 121 56 138 36 166 36 c 3
 193 36 213 52 213 80 c 3
 213 103 197 120 167 120 c 3
 141 120 121 106 121 80 c 3xbf80
114 532 m 3
 90 532 67 525 67 496 c 3
 67 447 222 409 268 396 c 1
 423 396 557 346 557 194 c 3
 557 103 520 40 471 0 c 1
 364 0 l 1x7f80
 419 45 487 81 487 186 c 3
 487 308 372 333 252 333 c 3
 178 333 67 274 67 166 c 3
 67 146 73 120 80 106 c 1
 94 141 118 164 167 164 c 3
 212 164 260 133 260 80 c 0
 260 28 212 -8 160 -8 c 3
 60 -8 1 58 1 173 c 3
 1 292 60 338 133 370 c 1
 82 389 -2 419 -2 482 c 3
 -2 555 56 591 114 591 c 3
 216 591 320 515 372 515 c 3
 436 515 468 568 493 614 c 1
 563 595 l 1
 512 515 466 450 372 450 c 3
 270 450 190 532 114 532 c 3
EndSplineSet
EndChar

StartChar: uni0E8C
Encoding: 3724 3724 70
Width: 665
VWidth: 1063
Flags: W
HStem: -8 64<133.953 304.546> 322 49<100.797 172.504> 439 45<125.395 171.382> 521 70<141.757 266.905 342.279 468.87>
VStem: 23 75<375.635 435.098> 51 77<69.1394 103.614> 175 60<374.542 434.558> 484 69<-180.855 49.875> 511 73<306.282 475.398>
LayerCount: 2
Fore
SplineSet
175 402 m 3xfa
 175 425 157 439 133 439 c 3
 115 439 98 423 98 405 c 3
 98 386 116 371 137 371 c 3
 158 371 175 383 175 402 c 3xfa
459 120 m 3
 515 120 555 84 555 34 c 3
 555 -7 553 -42 553 -78 c 3
 553 -126 563 -171 585 -195 c 1
 507 -214 l 1
 490 -157 484 -119 484 -55 c 3
 484 -33 487 -7 487 20 c 3
 487 40 473 54 442 54 c 3
 404 54 309 -8 197 -8 c 3
 95 -8 51 44 51 101 c 3xf7
 51 152 165 175 210 178 c 0
 244 180 285 187 331 198 c 0
 423 220 511 286 511 388 c 3
 511 468 475 521 403 521 c 3
 359 521 330 500 304 445 c 1
 276 495 256 524 205 524 c 3
 171 524 145 508 125 483 c 1
 131 484 136 484 141 484 c 3
 187 484 235 451 235 407 c 3
 235 354 195 322 140 322 c 3
 78 322 23 366 23 430 c 3xfa80
 23 515 109 591 188 591 c 3
 239 591 284 573 303 542 c 1
 315 565 355 591 411 591 c 3
 524 591 584 496 584 379 c 3
 584 244 472 185 368 147 c 0
 332 134 287 125 235 120 c 0
 189 116 128 104 128 87 c 3xf680
 128 70 184 56 196 56 c 3
 285 56 389 120 459 120 c 3
EndSplineSet
EndChar

StartChar: uni0EA8
Encoding: 3752 3752 71
Width: 700
VWidth: 1063
Flags: W
HStem: -8 63<148.699 259.206> 0 21G<468 556.5> 127 48<186.736 259.62> 223 52<135.9 239.015> 351 47<144.324 238.705> 525 66<157.637 408.059>
VStem: 3 69<93.9387 259.767 353.678 454.424> 129 55<62.3811 121.735> 243 48<281.319 345.207> 263 57<59.4954 122.768> 503 70<28.0688 446.484>
LayerCount: 2
Back
SplineSet
43 304 m 1xbfa0
 23 331 7 359 7 408 c 3
 7 536 162 591 297 591 c 3
 424 591 573 528 573 435 c 2
 573 71 l 2
 573 56 563 33 550 0 c 1
 468 0 l 1
 481 28 503 66 503 96 c 2
 503 411 l 2
 503 479 381 525 301 525 c 3
 188 525 74 497 74 390 c 3
 74 370 77 359 85 353 c 1
 111 383 141 398 195 398 c 3
 248 398 291 363 291 311 c 3x7fc8
 291 260 247 223 196 223 c 3
 147 223 116 238 89 261 c 1
 77 242 72 217 72 185 c 3
 72 124 89 76 132 62 c 1
 129 85 l 1
 129 134 179 175 226 175 c 3
 275 175 320 136 320 85 c 3
 320 35 271 -8 219 -8 c 3
 66 -8 3 60 3 190 c 3
 3 243 18 271 43 304 c 1xbfa0
191 275 m 3
 216 275 243 285 243 311 c 3
 243 336 224 351 196 351 c 3
 169 351 145 336 124 307 c 1
 145 286 167 275 191 275 c 3
224 55 m 3xbfa0
 245 55 263 71 263 93 c 3
 263 112 243 127 224 127 c 3
 204 127 184 113 184 93 c 3
 184 68 199 55 224 55 c 3xbfa0
474 614 m 1x3f90
 549 623 l 1
 533 497 509 425 405 399 c 1
 373 463 l 1
 448 468 471 535 474 614 c 1x3f90
EndSplineSet
Fore
SplineSet
474 614 m 1xbf60
 549 623 l 1
 544 582 538 548 529 518 c 1
 556 495 573 466 573 435 c 2
 573 71 l 2
 573 56 563 33 550 0 c 1
 468 0 l 1
 481 28 503 66 503 96 c 2
 503 411 l 2
 503 424 499 436 491 447 c 1
 471 424 443 409 405 399 c 1
 373 463 l 1
 401 465 421 475 436 491 c 1
 395 512 342 525 301 525 c 3
 188 525 74 497 74 390 c 3
 74 370 77 359 85 353 c 1
 111 383 141 398 195 398 c 3
 248 398 291 363 291 311 c 3x7fa0
 291 260 247 223 196 223 c 3
 147 223 116 238 89 261 c 1
 77 242 72 217 72 185 c 3
 72 124 89 76 132 62 c 1
 129 85 l 1
 129 134 179 175 226 175 c 3
 275 175 320 136 320 85 c 3
 320 35 271 -8 219 -8 c 3
 66 -8 3 60 3 190 c 3
 3 243 18 271 43 304 c 1
 23 331 7 359 7 408 c 3
 7 536 162 591 297 591 c 3
 354 591 416 578 467 555 c 1
 471 573 473 593 474 614 c 1xbf60
224 55 m 3xbf60
 245 55 263 71 263 93 c 3
 263 112 243 127 224 127 c 3
 204 127 184 113 184 93 c 3
 184 68 199 55 224 55 c 3xbf60
191 275 m 3
 216 275 243 285 243 311 c 3x3fa0
 243 336 224 351 196 351 c 3
 169 351 145 336 124 307 c 1
 145 286 167 275 191 275 c 3
EndSplineSet
EndChar

StartChar: uni0EA9
Encoding: 3753 3753 72
Width: 708
VWidth: 1063
Flags: W
HStem: -8 70<168.073 415.042> 254 56<444.761 515> 392 58<78.3213 125.217> 533 58<76.1243 154.186> 560 20G<475 564.5>
VStem: 16 71<126.869 239.487> 17 53<458.172 526.212> 159 69<455.308 527.834> 515 69<141.734 257.118 315 545.504>
LayerCount: 2
Back
SplineSet
87 189 m 3xf580
 87 94 194 62 293 62 c 3
 400 62 515 108 515 205 c 2
 515 473 l 2
 515 517 490 549 475 580 c 1
 561 580 l 1
 568 553 584 532 584 501 c 2
 584 205 l 2
 584 65 445 -8 293 -8 c 3
 156 -8 16 44 16 189 c 0xed80
 16 269 80 313 126 386 c 1
 125 392 117 391 112 392 c 1
 57 392 17 430 17 486 c 3xeb80
 17 547 52 591 112 591 c 3
 174 591 228 553 228 489 c 3
 228 450 219 417 202 388 c 0
 173 338 87 220 87 189 c 3xf580
159 492 m 3
 159 517 142 533 115 533 c 3
 90 533 70 513 70 492 c 3xf380
 70 475 89 450 115 450 c 3
 144 450 159 470 159 492 c 3
440 335 m 1
 461 319 497 309 544 309 c 3
 589 309 636 332 682 376 c 1
 699 363 708 350 708 336 c 3
 708 288 616 252 548 252 c 3
 483 252 429 273 384 296 c 1
 440 336 l 1
 440 335 l 1
EndSplineSet
Fore
SplineSet
159 492 m 3xf380
 159 517 142 533 115 533 c 3
 90 533 70 513 70 492 c 3
 70 475 89 450 115 450 c 3
 144 450 159 470 159 492 c 3xf380
87 189 m 3xf580
 87 94 194 62 293 62 c 3
 400 62 515 108 515 205 c 2
 515 254 l 1
 464 260 421 277 384 296 c 1
 440 336 l 1
 440 335 l 1
 456 322 482 313 515 310 c 1
 515 473 l 2
 515 517 490 549 475 580 c 1
 561 580 l 1
 568 553 584 532 584 501 c 2
 584 315 l 1
 616 324 649 345 682 376 c 1
 699 363 708 350 708 336 c 3
 708 296 644 265 584 255 c 1
 584 205 l 2
 584 65 445 -8 293 -8 c 3
 156 -8 16 44 16 189 c 3xed80
 16 269 80 313 126 386 c 1
 125 392 117 391 112 392 c 0
 57 392 17 430 17 486 c 3xeb80
 17 547 52 591 112 591 c 3
 174 591 228 553 228 489 c 3
 228 450 219 417 202 388 c 0
 173 338 87 220 87 189 c 3xf580
EndSplineSet
EndChar

StartChar: uni0EAF
Encoding: 3759 3759 73
Width: 481
VWidth: 1063
Flags: W
HStem: 0 21G<334 413> 334 63<148.218 241.628> 524 67<81.0226 143.522> 560 20G<321.5 413>
VStem: 19 60<453.382 521.582> 146 58<452.445 521.796> 334 79<0 425 509.095 580>
LayerCount: 2
Fore
SplineSet
111 591 m 259xee
 167 591 204 548 204 490 c 3
 204 448 185 418 147 400 c 1
 153 398 158 397 162 397 c 3
 250 397 308 459 335 580 c 1
 413 580 l 1xde
 413 0 l 1
 334 0 l 1
 334 425 l 1
 301 365 251 334 182 334 c 3
 92 334 19 394 19 482 c 3
 19 539 54 591 111 591 c 259xee
113 524 m 3xee
 91 524 79 512 79 488 c 259
 79 464 91 451 113 451 c 3
 135 451 146 464 146 488 c 259
 146 512 135 524 113 524 c 3xee
EndSplineSet
EndChar

StartChar: uni0EA0
Encoding: 3744 3744 74
Width: 783
VWidth: 1059
Flags: W
HStem: -8 48<98.3343 173.275> 0 21G<542 637> 121 45<97.6592 153.88> 523 68<324.303 540.121> 543 48<64.6432 142.462>
VStem: 9 51<456.66 536.2> 47 45<46.28 115.095> 154 75<165 457.194> 179 50<46.7072 115.188> 581 75<32.7868 485.798>
LayerCount: 2
Fore
SplineSet
179 81 m 3xa2c0
 179 103 158 121 136 121 c 3
 113 121 92 103 92 81 c 3
 92 58 113 40 136 40 c 3
 159 40 179 59 179 81 c 3xa2c0
52 425 m 1
 28 441 9 462 9 501 c 3
 9 561 53 591 114 591 c 3xad40
 154 591 209 571 215 527 c 1
 276 567 333 591 444 591 c 3
 538 591 656 548 656 463 c 2
 656 97 l 2
 656 50 643 27 631 0 c 1
 542 0 l 1
 558 33 581 61 581 97 c 2
 581 439 l 2
 581 500 507 523 444 523 c 19
 389 523 299 512 229 438 c 1x7540
 229 79 l 2
 229 30 187 -8 138 -8 c 3
 89 -8 47 30 47 79 c 3xb2c0
 47 137 84 166 140 166 c 0
 145 166 149 165 154 165 c 1
 153 483 l 2
 153 517 133 543 113 543 c 3
 82 543 60 527 60 506 c 3xad40
 60 489 70 475 83 470 c 1
 52 425 l 1
EndSplineSet
EndChar

StartChar: uni0E8F
Encoding: 3727 3727 75
Width: 695
VWidth: 1063
Flags: W
HStem: -8 67<114.714 244.22 376.765 493.978> 253 50<125.125 235.991> 407 53<180.662 251.982> 543 48<182.255 252.498> 560 20G<479 568>
VStem: 13 72<89.2523 215.677 335.317 475.425> 258 55<465.388 536.999> 277 72<92.1938 180> 520 65<85.7551 548.032>
LayerCount: 2
Fore
SplineSet
124 497 m 1xf680
 97 486 86 429 86 385 c 3
 86 323 150 303 207 303 c 3
 217 303 227 304 238 305 c 1
 236 251 l 1
 236 251 223 253 218 253 c 3
 129 253 85 220 85 146 c 3
 85 99 122 59 172 59 c 3
 231 59 277 89 277 156 c 2
 277 180 l 1
 349 180 l 1
 349 136 l 2
 349 95 391 55 441 55 c 3
 495 55 520 107 520 160 c 2
 520 471 l 2
 520 506 502 549 479 580 c 1
 564 580 l 1xed80
 572 554 585 533 585 498 c 2
 585 143 l 2
 585 71 534 -8 441 -8 c 3
 371 -8 333 21 313 67 c 1
 277 31 241 -8 169 -8 c 3
 73 -8 13 48 13 144 c 3
 13 209 26 237 77 266 c 1
 41 290 17 328 17 395 c 3
 17 500 103 591 203 591 c 3
 267 591 313 556 313 491 c 3
 313 438 274 407 221 407 c 3
 165 407 130 443 124 497 c 1xf680
258 502 m 3xf680
 258 525 239 543 216 543 c 3
 194 543 175 524 175 502 c 3
 175 479 193 460 216 460 c 3
 240 460 258 479 258 502 c 3xf680
EndSplineSet
EndChar

StartChar: uni0E98
Encoding: 3736 3736 76
Width: 697
VWidth: 1059
Flags: W
HStem: -8 59<105.924 219.059 394.959 488.77> 65 51<104.73 158.198> 205 48<77.4924 157.048> 440 68<322.732 452.017> 528 63<72.48 198.061>
VStem: -2 72<124.338 197.583 464.293 523.372> 165 59<123.223 197.359> 267 74<102.476 215> 524 63<86.4844 222.386>
LayerCount: 2
Fore
SplineSet
118 116 m 3
 144 116 165 135 165 161 c 3
 165 185 143 205 118 205 c 3
 93 205 70 186 70 161 c 3
 70 135 92 116 118 116 c 3
304 73 m 1
 275 32 231 -8 167 -8 c 3
 78 -8 -2 50 -2 133 c 3
 -2 210 48 253 131 253 c 3
 188 253 224 215 224 159 c 3
 224 110 184 65 129 65 c 0
 121 65 113 66 104 67 c 1
 126 57 146 51 164 51 c 0
 215 51 254 102 267 146 c 1
 267 215 l 1
 341 215 l 1
 341 146 l 1
 350 98 401 57 444 57 c 3
 493 57 524 101 524 154 c 3
 524 207 501 234 454 261 c 0
 389 298 157 364 57 406 c 0
 23 422 -2 440 -2 483 c 3
 -2 543 50 591 117 591 c 3
 224 591 345 508 384 508 c 3
 455 508 490 564 517 615 c 1
 591 595 l 1
 536 504 486 440 384 440 c 3
 290 440 200 528 120 528 c 3
 96 528 71 521 71 499 c 3
 71 465 96 462 132 447 c 0
 260 394 397 358 512 302 c 0
 561 278 587 230 587 155 c 3
 587 55 536 -8 451 -8 c 3
 388 -8 334 33 304 73 c 1
EndSplineSet
EndChar

StartChar: uni0E93
Encoding: 3731 3731 77
Width: 927
VWidth: 1063
Flags: W
HStem: -8 56<148.446 222.963> 0 21G<390 465 701 804> 129 50<147.126 224.768> 526 65<138.333 336.319 512.502 699.954>
VStem: 3 72<119.396 464.509> 229 56<54.7065 124.805> 390 75<0 479.976> 742 77<30.6975 489.017>
LayerCount: 2
Fore
SplineSet
229 91 m 3xbf
 229 113 213 129 186 129 c 3
 161 129 142 110 142 91 c 3
 142 72 159 48 185 48 c 3
 212 48 229 70 229 91 c 3xbf
819 106 m 2
 819 58 813 35 795 0 c 1
 701 0 l 1
 720 30 742 56 742 107 c 2
 742 425 l 2
 742 507 676 526 593 526 c 3
 548 526 465 502 465 424 c 2
 465 0 l 1
 390 0 l 1x7f
 390 424 l 2
 390 502 297 526 242 526 c 3
 133 526 75 483 75 376 c 2
 75 183 l 2
 75 161 83 133 91 116 c 1
 97 156 147 179 185 179 c 3
 240 179 285 141 285 88 c 3
 285 31 234 -8 177 -8 c 3
 73 -8 3 68 3 169 c 2
 3 362 l 2
 3 514 86 591 229 591 c 3
 315 591 370 582 428 527 c 1
 475 581 534 591 624 591 c 3
 719 591 819 523 819 427 c 2
 819 106 l 2
EndSplineSet
EndChar

StartChar: uni0E8E
Encoding: 3726 3726 78
Width: 899
VWidth: 1063
Flags: W
HStem: -8 66<154.674 267.139 520.72 618.282> 135 47<194.937 267.82> 231 55<139.393 244.775> 364 48<148.327 244.373> 524 67<141.772 339.631> 560 20G<662 735>
VStem: 3 71<99.6254 269.123 365.584 467.59> 132 59<65.2324 129.197> 249 48<293.083 358.824> 272 56<63.6125 129.632> 415 72<90.1622 458.696> 662 73<102.651 580>
LayerCount: 2
Fore
SplineSet
195 286 m 3xf3b0
 221 286 249 296 249 322 c 3
 249 349 231 364 201 364 c 3
 173 364 149 349 127 319 c 1
 149 297 171 286 195 286 c 3xf3b0
231 58 m 3
 254 58 272 76 272 99 c 3xf370
 272 118 251 135 231 135 c 3
 212 135 191 118 191 99 c 3
 191 74 205 58 231 58 c 3
44 316 m 1
 24 342 7 373 7 414 c 3
 7 528 128 591 245 591 c 3xfb70
 370 591 487 522 487 401 c 2
 487 166 l 2
 487 101 516 62 574 62 c 259
 622 62 662 117 662 166 c 2
 662 580 l 1
 735 580 l 1xf770
 735 166 l 2
 735 71 670 -8 575 -8 c 3
 461 -8 415 49 415 178 c 2
 415 401 l 2
 415 470 334 524 247 524 c 3
 167 524 75 492 75 408 c 3
 75 393 79 379 87 365 c 1
 113 397 144 412 200 412 c 3
 254 412 297 376 297 322 c 259xfbb0
 297 269 253 231 201 231 c 3
 150 231 120 248 91 270 c 1
 79 251 74 226 74 193 c 3
 74 133 91 80 136 65 c 1
 136 65 132 82 132 88 c 3
 132 139 182 182 231 182 c 3
 282 182 328 141 328 88 c 3
 328 36 277 -8 224 -8 c 3
 71 -8 3 57 3 197 c 3
 3 252 18 281 44 316 c 1
EndSplineSet
EndChar

StartChar: uni0E91
Encoding: 3729 3729 79
Width: 808
VWidth: 1063
Flags: W
HStem: -8 69<160.897 316.49> 0 21G<589 691.5> 406 41<52.519 112.094> 491 60<173.298 218.107> 510 81<52.437 140.915> 527 64<222.978 273.75 476.208 592.335> 543 48<89.0469 164.367>
VStem: -2 52<449.123 507.161> 35 77<107.383 235.487> 115 47<449.3 507.988> 275 68<410.809 526.722> 366 76<106.401 491.481> 630 77<32.3993 485.109>
LayerCount: 2
Fore
SplineSet
115 479 m 3x2978
 115 496 100 510 83 510 c 3
 65 510 50 497 50 479 c 3
 50 460 64 447 83 447 c 3
 100 447 115 462 115 479 c 3x2978
80 406 m 259
 38 406 -2 437 -2 478 c 3
 -2 540 59 591 115 591 c 3x2978
 168 591 172 551 196 551 c 3x3178
 218 551 207 591 263 591 c 3
 321 591 343 550 343 479 c 3
 343 407 287 310 220 288 c 0
 160 268 112 236 112 177 c 3
 112 98 172 61 243 61 c 3xa4f8
 304 61 366 103 366 163 c 2
 366 407 l 2
 366 529 410 591 534 591 c 3
 648 591 707 524 707 407 c 2
 707 108 l 2
 707 58 700 36 683 0 c 1
 589 0 l 1x64f8
 607 32 630 56 630 109 c 2
 630 405 l 2
 630 474 602 523 534 523 c 3
 467 523 442 478 442 407 c 2
 442 164 l 2
 442 72 362 -8 247 -8 c 3
 123 -8 35 47 35 177 c 3
 35 277 104 317 166 337 c 0
 232 359 275 424 275 493 c 3
 275 515 267 527 255 527 c 3xa4f8
 228 527 222 491 201 491 c 3x30f8
 183 491 159 543 126 543 c 3x22f8
 123 543 121 543 119 542 c 1
 143 532 162 508 162 482 c 3
 162 438 125 406 80 406 c 259
EndSplineSet
EndChar

StartChar: uni0E86
Encoding: 3718 3718 80
Width: 783
VWidth: 1063
Flags: W
HStem: -8 69<167.515 327.381 483.273 589.311> 406 41<62.3025 122.809> 491 60<183.607 228.545> 527 64<233.447 281.54> 543 48<96 174.328> 560 20G<376 452 627 699>
VStem: 9 51<448.968 507.105> 45 77<104.452 223.028> 125 48<448.838 508.226> 285 69<400.982 526.165> 376 76<113.286 580> 627 72<103.179 580>
LayerCount: 2
Fore
SplineSet
125 479 m 3xc2f0
 125 497 110 510 93 510 c 3
 75 510 60 496 60 479 c 3
 60 461 75 447 93 447 c 3
 111 447 125 461 125 479 c 3xc2f0
537 60 m 259
 585 60 627 114 627 163 c 2
 627 580 l 1
 699 580 l 1xc5f0
 699 163 l 2
 699 66 634 -8 538 -8 c 3
 480 -8 453 20 410 55 c 1
 382 20 324 -8 257 -8 c 3
 134 -8 45 49 45 165 c 3
 45 265 114 306 177 326 c 0
 243 348 285 415 285 482 c 3
 285 504 278 527 266 527 c 3xd1f0
 238 527 233 491 211 491 c 3xe1f0
 193 491 169 543 136 543 c 0
 133 543 131 543 129 542 c 1
 153 532 173 507 173 481 c 3
 173 437 136 406 91 406 c 259
 49 406 9 436 9 478 c 3
 9 540 66 591 126 591 c 3xcaf0
 180 591 182 551 206 551 c 3xe2f0
 228 551 218 591 273 591 c 3xd2f0
 331 591 354 539 354 468 c 3
 354 393 299 294 231 277 c 0
 168 261 122 218 122 165 c 3
 122 94 182 61 253 61 c 3
 339 61 376 117 376 209 c 2
 376 580 l 1
 452 580 l 1xc5f0
 452 208 l 2
 452 122 472 60 537 60 c 259
EndSplineSet
EndChar

StartChar: uni0E89
Encoding: 3721 3721 81
Width: 684
VWidth: 1063
Flags: W
HStem: -8 64<82.2619 175.73 320.147 477.519> 116 66<83.5433 170.224> 178 50<233.384 263> 305 50<232.448 301.474> 520 71<140.155 408.127>
VStem: 14 67<58.2487 112.941> 15 90<434.583 491.457> 175 53<231.827 300.917> 305 52<233.101 300.68> 519 72<108.461 406.636>
LayerCount: 2
Fore
SplineSet
119 116 m 3xddc0
 99 116 81 103 81 85 c 3
 81 67 97 56 116 56 c 3
 130 56 153 65 184 82 c 1
 161 105 139 116 119 116 c 3xddc0
305 267 m 259
 305 289 288 305 266 305 c 259
 245 305 228 288 228 267 c 259
 228 245 244 228 266 228 c 259xb9c0
 288 228 305 245 305 267 c 259
266 355 m 259
 321 355 357 313 357 256 c 3
 357 191 314 117 294 99 c 1
 321 68 361 58 416 58 c 3
 488 58 519 92 519 293 c 3
 519 444 442 520 296 520 c 3
 233 520 105 509 105 465 c 3
 105 444 114 441 129 433 c 1
 125 414 112 389 104 372 c 1
 64 391 15 417 15 462 c 3xbbc0
 15 556 184 591 296 591 c 3
 487 591 591 483 591 293 c 3
 591 38 545 -8 410 -8 c 3
 340 -8 288 7 249 39 c 1
 198 8 154 -8 119 -8 c 3
 54 -8 14 37 14 89 c 3
 14 142 57 182 111 182 c 3xddc0
 141 182 183 166 233 136 c 1
 246 148 256 163 263 178 c 1
 216 180 175 218 175 266 c 3
 175 315 217 355 266 355 c 259
EndSplineSet
EndChar

StartChar: uni0E90
Encoding: 3728 3728 82
Width: 654
VWidth: 1054
Flags: W
HStem: -8 58<67.7849 144.59> 131 53<67.3634 115.532> 522 69<153.85 392.264>
VStem: 9 68<340.833 461.509> 10 51<57.2017 123.078> 150 63<55.8483 124.785> 488 66<-85.9864 443.634>
LayerCount: 2
Fore
SplineSet
488 382 m 2xf6
 488 477 378 522 276 522 c 3
 179 522 77 488 77 404 c 3xf6
 77 329 213 212 213 90 c 3
 213 23 160 -8 103 -8 c 3
 46 -8 10 36 10 93 c 3xee
 10 144 49 184 102 184 c 3
 109 184 114 184 116 188 c 1
 83 242 9 308 9 404 c 3
 9 534 138 591 276 591 c 3
 420 591 554 522 554 384 c 2
 554 7 l 2
 554 -47 583 -111 611 -157 c 1
 529 -157 l 1
 504 -110 488 -49 488 7 c 2
 488 382 l 2xf6
106 131 m 3
 82 131 61 109 61 91 c 3xee
 61 69 83 50 106 50 c 3
 129 50 150 67 150 91 c 3
 150 114 129 131 106 131 c 3
EndSplineSet
EndChar
